# Blender 4.1.1
# www.blender.org
mtllib GRSS.mtl
o Plane
v -0.162550 0.210394 0.229111
v -0.053867 0.210394 0.286462
v -0.266717 1.312726 0.386134
v -0.109231 1.312726 0.469238
v -0.071292 -0.004621 0.169841
v -0.450168 2.689837 0.924550
v -0.242813 0.737556 0.298674
v -0.050522 0.737556 0.400145
v -0.146668 0.739386 0.349409
v -0.189664 1.312726 0.430889
v 0.132775 0.029093 0.046815
v 0.088292 0.029093 -0.027805
v 0.333543 1.083336 0.049381
v 0.242364 1.083336 -0.103571
v 0.103015 0.000497 0.008859
v 0.770517 1.846532 -0.314762
v 0.257633 0.489249 0.107448
v 0.150448 0.489249 -0.072356
v 0.202585 0.487507 0.017421
v 0.291065 1.083336 -0.028950
v -0.090769 0.022080 0.029656
v -0.158141 0.022080 0.084500
v -0.225452 1.069890 -0.015410
v -0.363546 1.069890 0.097008
v -0.115990 -0.006038 0.053196
v -0.649176 1.833086 -0.394889
v -0.148571 0.476303 0.039288
v -0.310909 0.476303 0.171441
v -0.228101 0.474654 0.104613
v -0.296786 1.069890 0.037990
v 0.029780 0.018358 0.273546
v 0.083339 0.018358 0.205148
v 0.123237 1.062752 0.583575
v 0.233021 1.062752 0.443376
v 0.052713 -0.009508 0.223067
v 0.620454 1.825949 0.859840
v 0.039880 0.469432 0.524231
v 0.168936 0.469432 0.359420
v 0.103663 0.467832 0.438674
v 0.180981 1.062752 0.515709
v -0.182573 0.013994 0.202158
v -0.131915 0.016617 0.285196
v -0.422246 1.056344 0.491331
v -0.265037 1.056344 0.574957
v -0.157550 -0.013544 0.237311
v -0.607481 1.819541 1.029137
v -0.361299 0.436745 0.366653
v -0.194203 0.453398 0.476847
v -0.276712 0.442447 0.416800
v -0.345343 1.056344 0.536342
vn -0.1973 -0.2118 0.9572
vn -0.6709 -0.2026 0.7133
vn -0.4740 -0.2629 0.8404
vn -0.4263 -0.2629 0.8656
vn -0.4578 -0.2148 0.8627
vn -0.4325 -0.3756 0.8196
vn -0.3405 -0.1854 0.9218
vn -0.5629 -0.1804 0.8066
vn -0.4578 -0.1842 0.8698
vn -0.4496 -0.2679 0.8521
vn 0.8399 -0.1611 -0.5183
vn 0.8551 -0.1647 -0.4917
vn 0.8077 -0.3760 -0.4541
vn 0.7840 -0.3748 -0.4948
vn 0.8481 -0.1631 -0.5041
vn 0.6933 -0.5903 -0.4133
vn 0.8480 -0.1613 -0.5048
vn 0.8478 -0.1629 -0.5046
vn 0.8473 -0.1620 -0.5058
vn 0.7915 -0.3885 -0.4718
vn -0.6347 -0.0651 -0.7700
vn -0.6256 -0.0621 -0.7777
vn -0.5663 -0.3707 -0.7361
vn -0.6052 -0.3732 -0.7031
vn -0.6308 -0.0638 -0.7733
vn -0.5096 -0.5903 -0.6260
vn -0.6235 -0.1080 -0.7743
vn -0.6328 -0.1149 -0.7657
vn -0.6272 -0.1085 -0.7713
vn -0.5826 -0.3853 -0.7156
vn 0.7620 -0.3300 0.5572
vn 0.7181 -0.3461 0.6037
vn 0.7149 -0.3832 0.5849
vn 0.7401 -0.3806 0.5544
vn 0.7369 -0.3395 0.5845
vn 0.6355 -0.5903 0.4976
vn 0.7697 -0.2414 0.5910
vn 0.7506 -0.2651 0.6052
vn 0.7622 -0.2576 0.5938
vn 0.7234 -0.3946 0.5665
vn -0.6006 -0.4597 0.6542
vn -0.5602 -0.4125 0.7184
vn -0.4602 -0.4046 0.7903
vn -0.4369 -0.3984 0.8065
vn -0.5838 -0.4398 0.6824
vn -0.3791 -0.5903 0.7126
vn -0.5522 -0.3430 0.7599
vn -0.5290 -0.3011 0.7935
vn -0.5431 -0.3304 0.7719
vn -0.4452 -0.4126 0.7947
vt 0.500000 0.500000
vt 1.000000 0.500000
vt 1.000000 1.000000
vt 0.500000 0.714487
vt 0.000000 0.500000
vt 0.000000 1.000000
vt 0.000000 0.000000
vt 0.500000 0.000000
vt 1.000000 0.000000
vt 0.500000 1.000000
s 1
f 9/1/9 8/2/8 4/3/4 10/4/10
f 7/5/7 9/1/9 10/4/10 3/6/3
f 1/7/1 5/8/5 9/1/9 7/5/7
f 5/8/5 2/9/2 8/2/8 9/1/9
f 10/4/10 4/3/4 6/10/6
f 3/6/3 10/4/10 6/10/6
f 19/1/19 18/2/18 14/3/14 20/4/20
f 17/5/17 19/1/19 20/4/20 13/6/13
f 11/7/11 15/8/15 19/1/19 17/5/17
f 15/8/15 12/9/12 18/2/18 19/1/19
f 20/4/20 14/3/14 16/10/16
f 13/6/13 20/4/20 16/10/16
f 29/1/29 28/2/28 24/3/24 30/4/30
f 27/5/27 29/1/29 30/4/30 23/6/23
f 21/7/21 25/8/25 29/1/29 27/5/27
f 25/8/25 22/9/22 28/2/28 29/1/29
f 30/4/30 24/3/24 26/10/26
f 23/6/23 30/4/30 26/10/26
f 39/1/39 38/2/38 34/3/34 40/4/40
f 37/5/37 39/1/39 40/4/40 33/6/33
f 31/7/31 35/8/35 39/1/39 37/5/37
f 35/8/35 32/9/32 38/2/38 39/1/39
f 40/4/40 34/3/34 36/10/36
f 33/6/33 40/4/40 36/10/36
f 49/1/49 48/2/48 44/3/44 50/4/50
f 47/5/47 49/1/49 50/4/50 43/6/43
f 41/7/41 45/8/45 49/1/49 47/5/47
f 45/8/45 42/9/42 48/2/48 49/1/49
f 50/4/50 44/3/44 46/10/46
f 43/6/43 50/4/50 46/10/46
