# Blender 4.1.1
# www.blender.org
o Cube.019
v -15.682442 6.911837 -16.036036
v -15.047326 6.911837 14.821853
v 15.682445 6.911837 -16.036036
v 15.047329 6.911837 14.821853
v -20.656336 6.911837 -0.595088
v 20.656336 6.911837 -0.595088
v -0.000000 6.911837 18.553923
v -0.000000 6.911837 -19.385864
v -0.000000 6.911837 2.093941
v -27.310757 -2.280110 -26.492907
v -23.879395 3.351231 -22.787973
v -27.310757 -2.280110 25.455658
v -24.055073 3.351231 21.325260
v 27.310760 -2.280110 -26.492912
v 23.879395 3.351231 -22.787973
v 27.310760 -2.280110 25.455647
v 24.055073 3.351231 21.325260
v -33.057457 3.351231 1.756787
v -37.489971 -2.280110 1.529276
v 33.057457 3.351231 1.756787
v 37.489975 -2.280110 1.529276
v -0.000003 3.351231 26.466629
v 0.000001 -2.280110 31.276176
v -0.000003 3.351231 -27.842215
v 0.000001 -2.280110 -32.356300
v -46.970150 -23.008095 1.827652
v -34.216892 -23.008095 31.804356
v 0.000002 -23.008095 39.096722
v 34.216900 -23.008095 31.804342
v 46.970165 -23.008095 1.827652
v 34.216900 -23.008095 -33.280575
v 0.000002 -23.008095 -40.626656
v -34.216892 -23.008095 -33.280571
v -0.000007 -23.008095 3.971060
vn -0.1013 0.9072 0.4082
vn 0.2582 0.9615 0.0940
vn 0.0826 0.9185 -0.3867
vn -0.1956 0.3462 0.9176
vn -0.0000 1.0000 -0.0000
vn 0.1956 0.3634 -0.9109
vn -0.2582 0.9615 0.0940
vn -0.0826 0.9185 -0.3867
vn 0.1013 0.9072 0.4082
vn 0.3229 0.9407 -0.1040
vn -0.1956 0.3634 -0.9109
vn -0.8464 0.3923 0.3601
vn -0.7449 0.5725 0.3427
vn 0.1604 0.6410 0.7506
vn 0.7488 0.6007 -0.2800
vn -0.1629 0.6171 -0.7698
vn -0.7349 0.6234 -0.2670
vn 0.7119 0.6337 0.3028
vn -0.1598 0.6422 0.7497
vn 0.1662 0.6107 -0.7742
vn -0.3229 0.9407 -0.1040
vn -0.0000 -1.0000 -0.0000
vn 0.8650 0.3911 -0.3142
vn 0.8464 0.3923 0.3601
vn -0.8650 0.3911 -0.3142
vn 0.1956 0.3462 0.9176
vn -0.0829 0.9180 0.3878
vn 0.2821 0.9506 0.1298
vn 0.0816 0.9191 -0.3856
vn -0.2821 0.9506 0.1298
vn -0.0816 0.9191 -0.3856
vn 0.0829 0.9180 0.3878
vn 0.2935 0.9496 -0.1097
vn -0.7119 0.6337 0.3028
vn 0.1598 0.6422 0.7497
vn 0.7349 0.6234 -0.2670
vn -0.1662 0.6107 -0.7742
vn -0.7488 0.6007 -0.2800
vn 0.7449 0.5725 0.3427
vn -0.1604 0.6410 0.7506
vn 0.1629 0.6171 -0.7698
vn -0.2935 0.9496 -0.1097
vt 0.339820 0.342636
vt 0.500000 0.218677
vt 0.500000 0.302908
vt 0.660180 0.342636
vt 0.851899 0.481714
vt 0.719888 0.506750
vt 0.666941 0.671120
vt 0.500000 0.796797
vt 0.500000 0.706779
vt 0.209275 0.522603
vt 0.500000 0.301953
vt 0.500000 0.522603
vt 0.500000 0.478125
vt 0.790725 0.522603
vt 0.148101 0.481714
vt 0.280112 0.506750
vt 0.333059 0.671120
vt 0.754197 0.742995
vt 0.135759 0.301953
vt 0.484136 0.522603
vt 0.161856 0.301953
vt 0.229439 0.522603
vt 0.100917 0.484136
vt 0.243932 0.273407
vt 0.500000 0.167479
vt 0.756068 0.273407
vt 0.899083 0.484136
vt 0.500000 0.844850
vt 0.245802 0.742995
vt 0.209275 0.782434
vt 0.790725 0.229439
vt 0.209275 0.229439
vt 0.790725 0.782434
vt 0.500000 0.458143
vt 0.135759 0.854689
vt 0.500000 0.932889
vt 0.135759 0.161856
vt 0.500000 0.084229
vt 0.864241 0.161857
vt 1.000000 0.480960
vt 0.864241 0.854689
vt 0.782434 0.522603
vt 0.480960 0.301953
vt 0.854689 0.301953
vt 0.161857 0.301953
vt 0.782434 0.522603
vt 0.864241 0.301953
vt 0.000000 0.480960
vt 0.229439 0.522603
vt 0.854689 0.301953
s 0
f 2/1/1 22/2/1 7/3/1
f 4/4/2 20/5/2 6/6/2
f 3/7/3 24/8/3 8/9/3
f 12/10/4 28/11/4 23/12/4
f 9/13/5 3/7/5 8/9/5
f 14/14/6 32/11/6 25/12/6
f 18/15/7 2/1/7 5/16/7
f 4/4/5 9/13/5 7/3/5
f 24/8/8 1/17/8 8/9/8
f 2/1/5 9/13/5 5/16/5
f 22/2/9 4/4/9 7/3/9
f 6/6/10 15/18/10 3/7/10
f 9/13/5 1/17/5 5/16/5
f 10/10/11 32/11/11 33/19/11
f 19/20/12 27/21/12 12/22/12
f 19/23/13 13/24/13 18/15/13
f 23/25/14 17/26/14 22/2/14
f 21/27/15 15/18/15 20/5/15
f 25/28/16 11/29/16 24/8/16
f 19/23/17 11/29/17 10/30/17
f 21/27/18 17/26/18 16/31/18
f 23/25/19 13/24/19 12/32/19
f 25/28/20 15/18/20 14/33/20
f 11/29/21 5/16/21 1/17/21
f 34/34/22 33/35/22 32/36/22
f 27/37/22 34/34/22 28/38/22
f 29/39/22 34/34/22 30/40/22
f 34/34/22 31/41/22 30/40/22
f 14/42/23 30/43/23 31/44/23
f 21/20/24 29/45/24 30/43/24
f 10/46/25 26/43/25 19/20/25
f 16/14/26 28/11/26 29/47/26
f 2/1/27 13/24/27 22/2/27
f 4/4/28 17/26/28 20/5/28
f 3/7/29 15/18/29 24/8/29
f 12/10/4 27/19/4 28/11/4
f 9/13/5 6/6/5 3/7/5
f 14/14/6 31/47/6 32/11/6
f 18/15/30 13/24/30 2/1/30
f 4/4/5 6/6/5 9/13/5
f 24/8/31 11/29/31 1/17/31
f 2/1/5 7/3/5 9/13/5
f 22/2/32 17/26/32 4/4/32
f 6/6/33 20/5/33 15/18/33
f 9/13/5 8/9/5 1/17/5
f 10/10/11 25/12/11 32/11/11
f 19/20/12 26/43/12 27/21/12
f 19/23/34 12/32/34 13/24/34
f 23/25/35 16/31/35 17/26/35
f 21/27/36 14/33/36 15/18/36
f 25/28/37 10/30/37 11/29/37
f 19/23/38 18/15/38 11/29/38
f 21/27/39 20/5/39 17/26/39
f 23/25/40 22/2/40 13/24/40
f 25/28/41 24/8/41 15/18/41
f 11/29/42 18/15/42 5/16/42
f 34/34/22 26/48/22 33/35/22
f 27/37/22 26/48/22 34/34/22
f 29/39/22 28/38/22 34/34/22
f 34/34/22 32/36/22 31/41/22
f 14/42/23 21/20/23 30/43/23
f 21/20/24 16/49/24 29/45/24
f 10/46/25 33/50/25 26/43/25
f 16/14/26 23/12/26 28/11/26
