# Blender 4.1.1
# www.blender.org
mtllib terrain proto.mtl
o Cube.012
v -103.997482 -25.170509 53.217628
v -89.375084 -25.110527 33.218796
v -92.280617 -25.242283 61.574623
v -78.132736 -25.179394 41.237343
v -98.650612 -24.775311 41.794010
v -83.217590 -24.869850 52.801533
v -82.015770 -25.223598 34.790447
v -99.699318 -25.143633 59.584229
v -87.219704 -9.058721 42.225418
v -89.681702 -24.877436 45.541386
v -109.409470 -12.713543 54.875648
v -111.950089 -14.963285 55.910141
v -88.666183 -9.331996 25.821716
v -89.146271 -11.801265 23.811327
v -91.984962 -12.820281 67.303589
v -92.154099 -15.084552 70.029533
v -71.241676 -9.438734 38.249660
v -69.204643 -11.923423 38.034592
v -102.990891 -11.366743 35.332455
v -101.432045 -9.034719 36.853592
v -75.586296 -11.534617 54.878639
v -77.513107 -9.181240 53.913651
v -76.518593 -11.982342 27.196888
v -77.639053 -9.489434 28.789236
v -104.663834 -14.900196 66.632660
v -103.029144 -12.662076 64.359985
vn 0.1920 -0.5582 -0.8072
vn 0.8055 -0.4874 0.3371
vn -0.2124 -0.6227 0.7531
vn -0.0915 0.9879 0.1250
vn 0.0078 -0.9997 -0.0215
vn 0.0131 0.9998 -0.0178
vn -0.5850 -0.4788 -0.6546
vn -0.0193 -0.9996 0.0183
vn -0.6479 -0.6200 0.4425
vn -0.0192 -0.9996 0.0184
vn 0.6961 -0.5613 -0.4476
vn 0.6366 -0.4806 0.6032
vn 0.0097 -0.9998 -0.0201
vn 0.0207 0.9997 -0.0124
vn -0.0804 0.9879 0.1329
vn -0.4851 0.6424 -0.5933
vn 0.6682 0.5889 -0.4546
vn 0.4209 0.6587 0.6237
vn -0.5368 0.7637 0.3587
vn -0.7213 0.6657 -0.1910
vn 0.7241 0.6350 0.2692
vn 0.2170 0.5917 -0.7764
vn -0.1582 0.7614 0.6287
vn -0.7814 -0.4719 -0.4082
vt 0.090206 0.158292
vt 0.010024 0.082340
vt 0.139228 -0.000000
vt 0.162036 0.107128
vt 0.248478 0.124595
vt 0.290766 0.022568
vt 0.385807 0.211038
vt 0.308157 0.260070
vt 0.312268 0.407810
vt 0.385807 0.473995
vt 0.257439 0.555226
vt 0.236350 0.456173
vt 0.563278 0.687588
vt 0.723171 0.765101
vt 0.631570 0.980773
vt 0.499683 1.000000
vt 0.104661 0.707409
vt 0.218472 0.712173
vt 0.218472 0.859971
vt 0.141238 0.906203
vt 0.600278 0.505826
vt 0.714220 0.574757
vt 0.090888 0.306328
vt -0.000000 0.293179
vt 0.076661 0.555226
vt 0.162583 0.575090
vt 0.107115 0.533331
vt 0.147316 0.442930
vt 0.003435 0.604372
vt -0.000000 0.752370
vt 0.052606 0.890488
vt 0.468456 0.524730
vt 0.385807 0.696427
vt 0.385807 0.930745
vt 0.755176 0.192596
vt 0.708436 0.007863
vt 0.726551 -0.000000
vt 0.780261 0.195925
vt 0.752840 0.649343
vt 0.723171 0.523942
vt 0.755850 0.505826
vt 0.789907 0.649343
vt 0.410893 0.192596
vt 0.457632 0.422205
vt 0.440565 0.455280
vt 0.385807 0.195925
vt 0.583034 0.467353
vt 0.708436 0.422205
vt 0.725503 0.455280
vt 0.583034 0.505826
vt 0.457632 0.007863
vt 0.439517 -0.000000
vt 0.723171 0.774745
vt 0.755850 0.792861
s 0
usemtl Material.003
f 2/1/1 14/2/1 23/3/1 7/4/1
f 4/5/2 18/6/2 21/7/2 6/8/2
f 3/9/3 16/10/3 25/11/3 8/12/3
f 9/13/4 20/14/4 11/15/4 26/16/4
f 10/17/5 6/18/5 3/19/5 8/20/5
f 24/21/6 13/22/6 20/14/6 9/13/6
f 5/23/7 19/24/7 14/2/7 2/1/7
f 7/25/8 4/26/8 6/18/8 10/17/8
f 8/12/9 25/11/9 12/27/9 1/28/9
f 2/29/10 7/25/10 10/17/10 5/30/10
f 7/4/11 23/3/11 18/6/11 4/5/11
f 6/8/12 21/7/12 16/10/12 3/9/12
f 5/30/13 10/17/13 8/20/13 1/31/13
f 17/32/14 24/21/14 9/13/14 22/33/14
f 22/33/15 9/13/15 26/16/15 15/34/15
f 20/35/16 13/36/16 14/37/16 19/38/16
f 24/39/17 17/40/17 18/41/17 23/42/17
f 22/43/18 15/44/18 16/45/18 21/46/18
f 26/47/19 11/48/19 12/49/19 25/50/19
f 11/48/20 20/35/20 19/38/20 12/49/20
f 17/51/21 22/43/21 21/46/21 18/52/21
f 13/53/22 24/39/22 23/42/22 14/54/22
f 15/44/23 26/47/23 25/50/23 16/45/23
f 1/28/24 12/27/24 19/24/24 5/23/24
