# Blender 4.1.1
# www.blender.org
mtllib RockMount_A.mtl
o Cube.003
v -73.346603 77.783020 -58.672852
v -73.346603 77.783020 -83.624954
v -57.779800 77.783020 -68.058151
v -57.779800 77.783020 -83.624954
v -86.719635 77.783020 -70.322487
v -54.878784 77.783020 -75.841553
v -65.563202 77.783020 -86.525970
v -65.563202 77.783020 -55.771839
v -65.563202 77.783020 -75.841553
v -74.120613 124.528404 -67.284142
v -82.327156 112.607491 -50.635853
v -74.120613 124.528404 -84.398964
v -84.143349 112.280304 -88.993759
v -57.005791 124.528404 -67.284142
v -51.114994 113.978119 -65.848518
v -57.005787 124.528404 -84.398964
v -55.570164 122.560867 -85.834587
v -89.752846 111.481445 -70.322487
v -77.310120 124.528404 -75.841553
v -51.845577 122.560867 -75.841553
v -53.816284 124.528404 -75.841553
v -65.563202 122.560867 -89.559174
v -65.563202 124.528404 -87.588470
v -61.108032 113.978119 -52.738632
v -65.563202 124.528404 -64.094635
v -70.222450 135.583405 -75.841553
v -68.957382 135.583405 -79.235733
v -65.563202 135.583405 -80.500801
v -62.169025 135.583405 -79.235725
v -60.903954 135.583405 -75.841553
v -62.169025 135.583405 -72.447372
v -65.563202 135.583405 -71.182297
v -68.957382 135.583405 -72.447372
v -65.563202 135.583405 -75.841553
vn -0.0847 -0.1164 -0.9896
vn 0.9351 -0.0633 -0.3485
vn 0.8080 -0.1651 0.5656
vn 0.8032 0.5150 0.2994
vn -0.0000 -1.0000 -0.0000
vn -0.2994 0.5150 -0.8032
vn -0.8385 -0.2096 -0.5030
vn -0.0198 -0.1552 0.9877
vn 0.3485 -0.0633 -0.9351
vn 0.9907 -0.1204 0.0628
vn 0.2994 0.5150 0.8032
vn -0.2994 0.5150 0.8032
vn -0.7336 0.6436 -0.2182
vn 0.2547 0.6843 -0.6832
vn 0.7759 0.5270 0.3467
vn -0.0586 0.7824 0.6200
vn -0.6501 0.7287 0.2153
vn 0.6832 0.6843 -0.2547
vn -0.3218 0.5745 -0.7526
vn 0.5207 0.6146 0.5926
vn -0.8118 -0.2064 0.5462
vn -0.0000 1.0000 -0.0000
vn 0.8032 0.5150 -0.2994
vn -0.8032 0.5150 0.2994
vn 0.2994 0.5150 -0.8032
vn -0.8032 0.5150 -0.2994
vt 0.380149 -0.119649
vt 0.193356 0.477186
vt 0.514809 0.655049
vt 0.514809 -0.119649
vt 0.661099 -0.119649
vt 0.699327 0.655049
vt 0.526439 0.655049
vt 0.526439 -0.119649
vt 0.391779 -0.119649
vt 0.353550 0.506560
vt 0.126737 0.506560
vt 0.179214 -0.119649
vt 0.378387 0.689089
vt 0.526439 0.689089
vt 0.526439 0.880351
vt 0.467716 0.880351
vt 0.514809 0.526439
vt 0.699660 0.526439
vt 0.649469 0.391779
vt 0.514809 0.179214
vt 0.514809 0.689089
vt 0.366758 0.689089
vt 0.456087 0.880351
vt 0.514809 0.880351
vt 0.430954 -0.119649
vt 0.430954 0.463365
vt 0.753984 0.477186
vt 0.514809 0.711289
vt 0.649469 0.661099
vt 0.591888 0.506560
vt 0.224778 0.482847
vt 0.380149 0.661099
vt 0.148784 0.430954
vt 0.687698 0.655049
vt 0.649469 -0.119649
vt 0.380149 0.229404
vt 0.662861 0.689089
vt 0.573532 0.880351
vt 0.674490 0.689089
vt 0.514809 0.729671
vt 0.662861 0.674490
vt 0.687698 0.699327
vt 0.514809 0.763766
vt 0.514809 0.323206
vt 0.366758 0.378387
vt 0.224778 0.090357
vt 0.591888 0.126737
vt 0.311577 0.526439
vt 0.096306 0.430954
vt 0.718042 0.526439
vt 0.752137 0.526439
vt 0.662861 0.378387
vt 0.764777 0.353550
vt 0.229404 -0.119649
vt 0.090357 0.482847
vt 0.434200 0.526439
vt 0.456087 0.467716
vt 0.514809 0.445829
vt 0.514809 0.607048
vt 0.456087 0.585161
vt 0.573532 0.585161
vt 0.595419 0.526439
vt 0.573532 0.467716
vt 0.674490 0.689089
vt 0.585161 0.880351
vt 0.467716 0.880351
vt 0.662861 0.689089
vt 0.585161 0.880351
s 0
usemtl Material.002
f 2/1/1 13/2/1 22/3/1 7/4/1
f 4/5/2 17/6/2 20/7/2 6/8/2
f 3/9/3 15/10/3 24/11/3 8/12/3
f 14/13/4 21/14/4 30/15/4 31/16/4
f 9/17/5 6/18/5 3/19/5 8/20/5
f 23/21/6 12/22/6 27/23/6 28/24/6
f 5/25/7 18/26/7 13/27/7 2/5/7
f 7/28/5 4/29/5 6/18/5 9/17/5
f 8/4/8 24/30/8 11/31/8 1/1/8
f 2/32/5 7/28/5 9/17/5 5/33/5
f 7/4/9 22/3/9 17/34/9 4/35/9
f 6/8/10 20/7/10 15/10/10 3/9/10
f 5/33/5 9/17/5 8/20/5 1/36/5
f 25/21/11 14/37/11 31/38/11 32/24/11
f 10/22/12 25/21/12 32/24/12 33/23/12
f 19/14/13 12/39/13 13/27/13 18/26/13
f 23/40/14 16/41/14 17/42/14 22/43/14
f 21/14/15 14/13/15 15/10/15 20/7/15
f 25/44/16 10/45/16 11/46/16 24/47/16
f 10/45/17 19/48/17 18/49/17 11/46/17
f 16/41/18 21/50/18 20/51/18 17/42/18
f 12/22/19 23/21/19 22/3/19 13/2/19
f 14/52/20 25/44/20 24/47/20 15/53/20
f 1/54/21 11/55/21 18/26/21 5/25/21
f 34/17/22 26/56/22 33/57/22 32/58/22
f 28/59/22 27/60/22 26/56/22 34/17/22
f 29/61/22 28/59/22 34/17/22 30/62/22
f 30/62/22 34/17/22 32/58/22 31/63/22
f 21/14/23 16/64/23 29/65/23 30/15/23
f 19/14/24 10/13/24 33/66/24 26/15/24
f 16/67/25 23/21/25 28/24/25 29/38/25
f 12/39/26 19/14/26 26/15/26 27/68/26
