# Blender 4.0.2
# www.blender.org
mtllib temennya 4 kage.mtl
o Cylinder
v 150.690750 -3.212572 69.357712
v 150.690750 83.498932 69.357712
v 164.156219 -3.212572 70.683937
v 164.156219 83.498932 70.683937
v 177.053421 -3.212572 74.511726
v 177.053421 83.498932 74.511726
v 189.037140 -3.212572 80.989960
v 189.037140 83.498932 80.989960
v 199.496460 -3.212572 89.573685
v 199.496460 83.498932 89.573685
v 208.080185 -3.212572 100.033005
v 208.080185 83.498932 100.033005
v 214.458481 -3.212572 111.965942
v 214.458481 83.498932 111.965942
v 218.386200 -3.212572 124.913940
v 218.386200 83.498932 124.913940
v 219.712433 -3.212572 138.379395
v 219.712448 83.498932 138.379395
v 218.386200 -3.212572 151.844864
v 218.386200 83.498932 151.844864
v 214.458481 -3.212572 164.792862
v 214.458481 83.498932 164.792862
v 208.080200 -3.212572 176.725800
v 208.080200 83.498932 176.725800
v 199.496460 -3.212572 187.185120
v 199.496460 83.498932 187.185120
v 189.037140 -3.212572 195.768845
v 189.037140 83.498932 195.768845
v 175.097473 -3.212572 196.856644
v 175.097473 83.498932 196.856644
v 161.419754 -3.212572 197.318207
v 161.419754 83.498932 197.318207
v 149.961029 -3.212572 203.934921
v 149.961029 83.498932 203.934921
v 136.495560 -3.212572 202.608688
v 136.495560 83.498932 202.608688
v 124.277290 -3.212572 202.147125
v 124.277290 83.498932 202.147125
v 112.344353 -3.212572 195.768845
v 112.344353 83.498932 195.768845
v 101.885040 -3.212572 187.185120
v 101.885040 83.498932 187.185120
v 93.301308 -3.212572 176.725800
v 93.301308 83.498932 176.725800
v 86.923019 -3.212572 164.792862
v 86.923019 83.498932 164.792862
v 82.995293 -3.212572 151.844864
v 82.995293 83.498932 151.844864
v 81.669060 -3.212572 138.379395
v 81.669052 83.498932 138.379395
v 82.995293 -3.212572 124.913940
v 82.995293 83.498932 124.913940
v 86.923019 -3.212572 111.965942
v 86.923019 83.498932 111.965942
v 93.301308 -3.212572 100.032997
v 93.301308 83.498932 100.032997
v 101.885040 -3.212572 89.573685
v 101.885040 83.498932 89.573685
v 112.344353 -3.212572 80.989960
v 112.344353 83.498932 80.989960
v 124.277290 -3.212572 74.611671
v 124.277290 83.498932 74.611671
v 137.225281 -3.212572 70.683937
v 137.225281 83.498932 70.683937
v 141.723358 -3.212572 34.449409
v 167.490295 -3.212572 53.922356
v 167.490295 83.498932 53.922356
v 141.723358 83.498932 34.449409
v 182.133865 -3.212572 58.228348
v 182.133865 83.498932 58.228348
v 198.531830 -3.212572 66.780174
v 198.531830 83.498932 66.780174
v 211.580887 -3.212572 77.489265
v 211.580887 83.498932 77.489265
v 269.104614 -3.212572 90.538330
v 269.104614 83.498932 90.538330
v 277.062195 -3.212572 105.425896
v 277.062195 83.498932 105.425896
v 281.962433 -3.212572 121.579849
v 281.962433 83.498932 121.579849
v 283.617065 -3.212572 138.379395
v 283.617065 83.498932 138.379395
v 281.962433 -3.212572 155.178955
v 281.962433 83.498932 155.178955
v 277.062195 -3.212572 171.332916
v 277.062195 83.498932 171.332916
v 269.104614 -3.212572 186.220474
v 269.104614 83.498932 186.220474
v 258.395508 -3.212572 199.269531
v 258.395508 83.498932 199.269531
v 245.346466 -3.212572 209.978622
v 245.346466 83.498932 209.978622
v 181.637527 -3.212572 212.645721
v 181.637527 83.498932 212.645721
v 164.753845 -3.212572 214.079788
v 164.753845 83.498932 214.079788
v 149.961029 -3.212572 221.024872
v 149.961029 83.498932 221.024872
v 133.161484 -3.212572 219.370270
v 133.161484 83.498932 219.370270
v 117.737244 -3.212572 217.936188
v 117.737244 83.498932 217.936188
v 102.849678 -3.212572 209.978622
v 102.849678 83.498932 209.978622
v 89.800613 -3.212572 199.269531
v 89.800613 83.498932 199.269531
v 79.091530 -3.212572 186.220474
v 79.091530 83.498932 186.220474
v 71.133957 -3.212572 171.332916
v 71.133957 83.498932 171.332916
v 66.233711 -3.212572 155.178955
v 66.233711 83.498932 155.178955
v 64.579094 -3.212572 138.379395
v 64.579094 83.498932 138.379395
v 66.233711 -3.212572 121.579849
v 66.233711 83.498932 121.579849
v 71.133957 -3.212572 105.425896
v 71.133957 83.498932 105.425896
v 79.091530 -3.212572 90.538330
v 79.091530 83.498932 90.538330
v 77.982979 -3.212572 57.753815
v 77.982979 83.498932 57.753815
v 91.032043 -3.212572 47.044731
v 91.032043 83.498932 47.044731
v 108.769844 -3.212572 41.004265
v 108.769844 83.498932 41.004265
v 124.923798 -3.212572 36.104012
v 124.923798 83.498932 36.104012
v 177.797485 -3.212572 57.073631
v 177.797485 83.498932 57.073631
v 172.815353 -3.212572 72.951324
v 172.815353 83.498932 72.951324
v 155.602524 -3.212572 35.119629
v 172.402069 -3.212572 36.774246
v 172.402069 83.498932 36.774246
v 155.602524 83.498932 35.119629
v 183.139343 83.498932 40.042801
v 187.397522 83.498932 41.275726
v 187.397522 -3.212572 41.275726
v 203.443604 -3.212572 49.632057
v 203.443604 83.498932 49.632057
v 216.492661 -3.212572 60.341141
v 216.492661 83.498932 60.341141
v 233.288910 -3.212572 66.377419
v 233.288910 83.498932 66.377419
v 183.139343 -3.212572 40.042801
vn -0.0000 -1.0000 -0.0000
vn -0.0000 1.0000 -0.0000
vn 0.9541 -0.0000 0.2993
vn 0.9542 -0.0000 0.2993
vn 0.7424 -0.0000 -0.6699
vn 0.9239 -0.0000 -0.3827
vn 0.9808 -0.0000 -0.1951
vn 1.0000 -0.0000 -0.0000
vn 0.9808 -0.0000 0.1951
vn 0.9239 -0.0000 0.3827
vn 0.8315 -0.0000 0.5556
vn 0.7071 -0.0000 0.7071
vn 0.6344 -0.0000 0.7730
vn 0.0418 -0.0000 0.9991
vn 0.0632 -0.0000 0.9980
vn 0.2589 -0.0000 0.9659
vn 0.4250 -0.0000 0.9052
vn -0.0980 -0.0000 0.9952
vn -0.0953 -0.0000 0.9954
vn -0.2877 -0.0000 0.9577
vn -0.5556 -0.0000 0.8315
vn -0.7071 -0.0000 0.7071
vn -0.8315 -0.0000 0.5556
vn -0.9239 -0.0000 0.3827
vn -0.9808 -0.0000 0.1951
vn -1.0000 -0.0000 -0.0000
vn -0.9808 -0.0000 -0.1951
vn -0.9239 -0.0000 -0.3827
vn -0.8819 -0.0000 -0.4714
vn -0.9994 -0.0000 0.0338
vn -0.6344 -0.0000 -0.7730
vn -0.4862 -0.0000 -0.8739
vn -0.3064 -0.0000 -0.9519
vn 0.1951 -0.0000 0.9808
vn 0.3827 -0.0000 0.9239
vn -0.1951 -0.0000 -0.9808
vn -0.0250 -0.0000 -0.9997
vn -0.0000 -0.0000 1.0000
vn 0.5556 -0.0000 0.8315
vn 0.8315 -0.0000 -0.5556
vn 0.7071 -0.0000 -0.7071
vn 0.5556 -0.0000 -0.8315
vn 0.2612 -0.0000 -0.9653
vn 0.0679 -0.0000 -0.9977
vn 0.0980 -0.0000 -0.9952
vn -0.5001 -0.0000 -0.8660
vn -0.2751 -0.0000 -0.9614
vn -0.0558 -0.0000 -0.9984
vn -0.0778 -0.0000 -0.9970
vn -0.7071 -0.0000 -0.7071
vn -0.8315 -0.0000 -0.5556
vn -0.5575 -0.0000 0.8302
vn -0.4755 -0.0000 0.8797
vn -0.2533 -0.0000 0.9674
vn -0.1762 -0.0000 0.9844
vn 0.0731 -0.0000 -0.9973
vn 0.1956 -0.0000 -0.9807
vn 0.4619 -0.0000 -0.8869
vn 0.5511 -0.0000 -0.8344
vn 0.4935 -0.0000 -0.8697
vn 0.4522 -0.0000 -0.8919
vn 0.2912 -0.0000 -0.9567
vn -0.9548 -0.0000 -0.2972
vn -0.9550 -0.0000 -0.2965
vn 0.9541 -0.0000 0.2994
vn -0.9546 -0.0000 -0.2978
vt 0.919706 0.419706
vt 0.883337 0.449553
vt 0.250000 0.490000
vt 0.296822 0.485388
vt 0.796822 0.485388
vt 0.750000 0.490000
vt 0.000000 0.000000
vt 0.843750 0.500000
vt 0.843750 1.000000
vt 0.812500 1.000000
vt 0.812500 0.500000
vt 0.781250 1.000000
vt 0.781250 0.500000
vt 0.750000 1.000000
vt 0.750000 0.500000
vt 0.718750 1.000000
vt 0.718750 0.500000
vt 0.687500 1.000000
vt 0.687500 0.500000
vt 0.656250 1.000000
vt 0.656250 0.500000
vt 0.625000 1.000000
vt 0.625000 0.500000
vt 0.593750 1.000000
vt 0.593750 0.500000
vt 0.562500 1.000000
vt 0.562500 0.500000
vt 0.531250 1.000000
vt 0.531250 0.500000
vt 0.500000 1.000000
vt 0.500000 0.500000
vt 0.468750 1.000000
vt 0.468750 0.500000
vt 0.437500 1.000000
vt 0.437500 0.500000
vt 0.406250 1.000000
vt 0.406250 0.500000
vt 0.375000 1.000000
vt 0.375000 0.500000
vt 0.343750 1.000000
vt 0.343750 0.500000
vt 0.312500 1.000000
vt 0.312500 0.500000
vt 0.281250 1.000000
vt 0.281250 0.500000
vt 0.250000 1.000000
vt 0.250000 0.500000
vt 0.218750 1.000000
vt 0.218750 0.500000
vt 0.187500 1.000000
vt 0.187500 0.500000
vt 0.156250 1.000000
vt 0.156250 0.500000
vt 0.125000 1.000000
vt 0.125000 0.500000
vt 0.093750 1.000000
vt 0.093750 0.500000
vt 0.062500 1.000000
vt 0.062500 0.500000
vt 0.212471 0.438673
vt 0.176384 0.427726
vt 0.676384 0.427726
vt 0.712471 0.438673
vt 0.031250 1.000000
vt 0.031250 0.500000
vt 0.000000 1.000000
vt 0.000000 0.500000
vt 0.250000 0.442369
vt 0.750000 0.442369
vt 0.787529 0.438673
vt 0.287529 0.438673
vt 0.808721 0.432244
vt 0.823260 0.477368
vt 0.856874 0.409949
vt 0.823911 0.427568
vt 0.842211 0.471535
vt 0.323911 0.427568
vt 0.356874 0.409949
vt 0.383337 0.449553
vt 0.342211 0.471535
vt 0.886025 0.386025
vt 0.386025 0.386025
vt 0.419706 0.419706
vt 0.909949 0.356874
vt 0.949553 0.383337
vt 0.409949 0.356874
vt 0.449553 0.383337
vt 0.927726 0.323617
vt 0.971731 0.341844
vt 0.427726 0.323616
vt 0.471731 0.341844
vt 0.938673 0.287529
vt 0.985388 0.296822
vt 0.438673 0.287529
vt 0.485388 0.296822
vt 0.942369 0.250000
vt 0.990000 0.250000
vt 0.442369 0.250000
vt 0.490000 0.250000
vt 0.938673 0.212471
vt 0.985388 0.203178
vt 0.438673 0.212471
vt 0.485388 0.203178
vt 0.927726 0.176384
vt 0.971731 0.158156
vt 0.427726 0.176384
vt 0.471731 0.158156
vt 0.909949 0.143126
vt 0.949553 0.116663
vt 0.409949 0.143126
vt 0.449553 0.116663
vt 0.886025 0.113975
vt 0.919706 0.080294
vt 0.386025 0.113975
vt 0.419706 0.080294
vt 0.856874 0.090051
vt 0.883337 0.050447
vt 0.356874 0.090051
vt 0.383337 0.050447
vt 0.823616 0.072274
vt 0.841844 0.028269
vt 0.323616 0.072274
vt 0.341844 0.028269
vt 0.787529 0.061327
vt 0.796822 0.014612
vt 0.287529 0.061327
vt 0.296822 0.014612
vt 0.750000 0.057631
vt 0.750000 0.010000
vt 0.250000 0.057631
vt 0.250000 0.010000
vt 0.712471 0.061327
vt 0.703178 0.014612
vt 0.212471 0.061327
vt 0.203178 0.014612
vt 0.676383 0.072274
vt 0.658156 0.028269
vt 0.176384 0.072274
vt 0.158156 0.028269
vt 0.643126 0.090051
vt 0.616663 0.050447
vt 0.143126 0.090051
vt 0.116663 0.050447
vt 0.613974 0.113975
vt 0.580294 0.080294
vt 0.113975 0.113975
vt 0.080294 0.080294
vt 0.590051 0.143126
vt 0.550447 0.116663
vt 0.090051 0.143126
vt 0.050447 0.116663
vt 0.572274 0.176384
vt 0.528269 0.158156
vt 0.072274 0.176384
vt 0.028269 0.158156
vt 0.561327 0.212471
vt 0.514612 0.203178
vt 0.061327 0.212471
vt 0.014612 0.203178
vt 0.557631 0.250000
vt 0.510000 0.250000
vt 0.057631 0.250000
vt 0.010000 0.250000
vt 0.561327 0.287529
vt 0.514612 0.296822
vt 0.061327 0.287529
vt 0.014612 0.296822
vt 0.572274 0.323616
vt 0.528269 0.341844
vt 0.072274 0.323616
vt 0.028269 0.341844
vt 0.590051 0.356874
vt 0.550447 0.383337
vt 0.090051 0.356874
vt 0.050447 0.383337
vt 0.613975 0.386025
vt 0.580294 0.419706
vt 0.113975 0.386025
vt 0.080294 0.419706
vt 0.643126 0.409949
vt 0.616663 0.449553
vt 0.143126 0.409949
vt 0.116663 0.449553
vt 0.658156 0.471731
vt 0.158156 0.471731
vt 0.703178 0.485388
vt 0.203178 0.485388
vt 0.308721 0.432244
vt 0.323260 0.477368
vt 1.000000 0.500000
vt 1.000000 1.000000
vt 0.968750 1.000000
vt 0.968750 0.500000
vt 0.937223 0.500000
vt 0.937223 1.000000
vt 0.906250 1.000000
vt 0.906250 0.500000
vt 0.875000 1.000000
vt 0.875000 0.500000
vt 0.950399 1.000000
vt 0.950399 0.500000
s 1
f 73/1/1 71/2/1 140/2/1 142/1/1
f 68/3/2 67/4/2 135/4/2 136/3/2
f 66/5/1 65/6/1 133/6/1 134/5/1
f 130/7/3 129/7/3 146/7/4 137/7/4
f 75/8/5 76/9/5 78/10/6 77/11/6
f 77/11/6 78/10/6 80/12/7 79/13/7
f 79/13/7 80/12/7 82/14/8 81/15/8
f 81/15/8 82/14/8 84/16/9 83/17/9
f 83/17/9 84/16/9 86/18/10 85/19/10
f 85/19/10 86/18/10 88/20/11 87/21/11
f 87/21/11 88/20/11 90/22/12 89/23/12
f 89/23/12 90/22/12 92/24/13 91/25/13
f 91/25/14 92/24/14 94/26/15 93/27/15
f 93/27/15 94/26/15 96/28/16 95/29/16
f 95/29/16 96/28/16 98/30/17 97/31/17
f 97/31/18 98/30/18 100/32/19 99/33/19
f 99/33/19 100/32/19 102/34/20 101/35/20
f 101/35/20 102/34/20 104/36/21 103/37/21
f 103/37/21 104/36/21 106/38/22 105/39/22
f 105/39/22 106/38/22 108/40/23 107/41/23
f 107/41/23 108/40/23 110/42/24 109/43/24
f 109/43/24 110/42/24 112/44/25 111/45/25
f 111/45/25 112/44/25 114/46/26 113/47/26
f 113/47/26 114/46/26 116/48/27 115/49/27
f 115/49/27 116/48/27 118/50/28 117/51/28
f 117/51/28 118/50/28 120/52/29 119/53/29
f 119/53/30 120/52/30 122/54/30 121/55/30
f 121/55/31 122/54/31 124/56/32 123/57/32
f 123/57/32 124/56/32 126/58/33 125/59/33
f 64/60/34 62/61/35 61/62/35 63/63/34
f 125/59/33 126/58/33 128/64/36 127/65/36
f 127/65/36 128/64/36 68/66/37 65/67/37
f 2/68/38 64/60/34 63/63/34 1/69/38
f 3/70/1 1/69/1 65/6/1 66/5/1
f 2/68/2 4/71/2 67/4/2 68/3/2
f 131/72/1 3/70/1 66/5/1 129/73/1
f 7/74/1 5/75/1 69/76/1 71/2/1
f 6/77/2 8/78/2 72/79/2 70/80/2
f 9/81/1 7/74/1 71/2/1 73/1/1
f 8/78/2 10/82/2 74/83/2 72/79/2
f 11/84/1 9/81/1 73/1/1 75/85/1
f 10/82/2 12/86/2 76/87/2 74/83/2
f 13/88/1 11/84/1 75/85/1 77/89/1
f 12/86/2 14/90/2 78/91/2 76/87/2
f 15/92/1 13/88/1 77/89/1 79/93/1
f 14/90/2 16/94/2 80/95/2 78/91/2
f 17/96/1 15/92/1 79/93/1 81/97/1
f 16/94/2 18/98/2 82/99/2 80/95/2
f 19/100/1 17/96/1 81/97/1 83/101/1
f 18/98/2 20/102/2 84/103/2 82/99/2
f 21/104/1 19/100/1 83/101/1 85/105/1
f 20/102/2 22/106/2 86/107/2 84/103/2
f 23/108/1 21/104/1 85/105/1 87/109/1
f 22/106/2 24/110/2 88/111/2 86/107/2
f 25/112/1 23/108/1 87/109/1 89/113/1
f 24/110/2 26/114/2 90/115/2 88/111/2
f 27/116/1 25/112/1 89/113/1 91/117/1
f 26/114/2 28/118/2 92/119/2 90/115/2
f 29/120/1 27/116/1 91/117/1 93/121/1
f 28/118/2 30/122/2 94/123/2 92/119/2
f 31/124/1 29/120/1 93/121/1 95/125/1
f 30/122/2 32/126/2 96/127/2 94/123/2
f 33/128/1 31/124/1 95/125/1 97/129/1
f 32/126/2 34/130/2 98/131/2 96/127/2
f 35/132/1 33/128/1 97/129/1 99/133/1
f 34/130/2 36/134/2 100/135/2 98/131/2
f 37/136/1 35/132/1 99/133/1 101/137/1
f 36/134/2 38/138/2 102/139/2 100/135/2
f 39/140/1 37/136/1 101/137/1 103/141/1
f 38/138/2 40/142/2 104/143/2 102/139/2
f 41/144/1 39/140/1 103/141/1 105/145/1
f 40/142/2 42/146/2 106/147/2 104/143/2
f 43/148/1 41/144/1 105/145/1 107/149/1
f 42/146/2 44/150/2 108/151/2 106/147/2
f 45/152/1 43/148/1 107/149/1 109/153/1
f 44/150/2 46/154/2 110/155/2 108/151/2
f 47/156/1 45/152/1 109/153/1 111/157/1
f 46/154/2 48/158/2 112/159/2 110/155/2
f 49/160/1 47/156/1 111/157/1 113/161/1
f 48/158/2 50/162/2 114/163/2 112/159/2
f 51/164/1 49/160/1 113/161/1 115/165/1
f 50/162/2 52/166/2 116/167/2 114/163/2
f 53/168/1 51/164/1 115/165/1 117/169/1
f 52/166/2 54/170/2 118/171/2 116/167/2
f 55/172/1 53/168/1 117/169/1 119/173/1
f 54/170/2 56/174/2 120/175/2 118/171/2
f 57/176/1 55/172/1 119/173/1 121/177/1
f 56/174/2 58/178/2 122/179/2 120/175/2
f 59/180/1 57/176/1 121/177/1 123/181/1
f 58/178/2 60/182/2 124/183/2 122/179/2
f 61/62/1 59/180/1 123/181/1 125/184/1
f 60/182/2 62/61/2 126/185/2 124/183/2
f 63/63/1 61/62/1 125/184/1 127/186/1
f 62/61/2 64/60/2 128/187/2 126/185/2
f 1/69/1 63/63/1 127/186/1 65/6/1
f 64/60/2 2/68/2 68/3/2 128/187/2
f 62/61/35 60/182/39 59/180/39 61/62/35
f 60/182/39 58/178/12 57/176/12 59/180/39
f 58/178/12 56/174/11 55/172/11 57/176/12
f 56/174/11 54/170/10 53/168/10 55/172/11
f 54/170/10 52/166/9 51/164/9 53/168/10
f 52/166/9 50/162/8 49/160/8 51/164/9
f 50/162/8 48/158/7 47/156/7 49/160/8
f 48/158/7 46/154/6 45/152/6 47/156/7
f 46/154/6 44/150/40 43/148/40 45/152/6
f 44/150/40 42/146/41 41/144/41 43/148/40
f 42/146/41 40/142/42 39/140/42 41/144/41
f 40/142/42 38/138/43 37/136/43 39/140/42
f 38/138/43 36/134/44 35/132/44 37/136/43
f 36/134/44 34/130/45 33/128/45 35/132/44
f 34/130/46 32/126/47 31/124/47 33/128/46
f 32/126/47 30/122/48 29/120/48 31/124/47
f 30/122/48 28/118/49 27/116/49 29/120/48
f 28/118/31 26/114/50 25/112/50 27/116/31
f 26/114/50 24/110/51 23/108/51 25/112/50
f 24/110/51 22/106/28 21/104/28 23/108/51
f 22/106/28 20/102/27 19/100/27 21/104/28
f 20/102/27 18/98/26 17/96/26 19/100/27
f 18/98/26 16/94/25 15/92/25 17/96/26
f 16/94/25 14/90/24 13/88/24 15/92/25
f 14/90/24 12/86/23 11/84/23 13/88/24
f 12/86/23 10/82/22 9/81/22 11/84/23
f 10/82/22 8/78/52 7/74/52 9/81/22
f 8/78/52 6/77/53 5/75/53 7/74/52
f 132/188/54 4/71/55 3/70/55 131/72/54
f 4/71/55 2/68/38 1/69/38 3/70/55
f 4/71/2 132/188/2 130/189/2 67/4/2
f 70/80/2 72/79/2 141/79/2 138/80/2
f 133/190/56 136/191/56 135/192/57 134/193/57
f 139/194/58 138/195/58 141/196/59 140/197/59
f 140/197/59 141/196/59 143/198/60 142/199/60
f 142/199/60 143/198/60 145/9/61 144/8/61
f 134/193/57 135/192/57 137/200/62 146/201/62
f 65/67/37 68/66/37 136/66/56 133/67/56
f 129/73/1 66/5/1 134/5/1 146/73/1
f 72/79/2 74/83/2 143/83/2 141/79/2
f 67/4/2 130/189/2 137/189/2 135/4/2
f 75/85/1 73/1/1 142/1/1 144/85/1
f 69/7/63 70/7/63 138/7/64 139/7/64
f 74/83/2 76/87/2 145/87/2 143/83/2
f 71/2/1 69/76/1 139/76/1 140/2/1
f 76/9/5 75/8/5 144/8/61 145/9/61
f 131/72/65 129/73/3 130/7/3 132/188/65
f 69/76/63 5/75/66 6/77/66 70/80/63
