# Blender 4.1.1
# www.blender.org
o Cube.006
v 7.958778 -24.242435 8.615515
v -6.344875 -24.242435 2.578708
v 6.344875 -24.242435 -2.578708
v -2.578708 -24.242435 -6.344875
v -1.954727 -24.242435 13.463068
v 2.584943 -24.242435 -6.124783
v -6.124783 -24.242435 -2.584943
v 11.504852 -24.242435 4.855582
v 0.000000 -24.242435 0.000000
v 2.835145 4.842891 6.975835
v 10.393228 -2.574389 15.708004
v -6.975835 4.842891 2.835145
v -12.034634 -2.777970 7.468974
v 6.975835 4.842891 -2.835145
v 9.223991 -1.721578 -5.864681
v -2.835145 4.842891 -6.975835
v -3.310780 3.618673 -8.146127
v -2.688568 -3.275027 15.201838
v -2.842000 4.842891 6.733855
v 3.318784 3.618673 -7.863552
v 2.842000 4.842891 -6.733855
v -7.863552 3.618673 -3.318784
v -6.733855 4.842891 -2.842000
v 14.321486 -1.721578 3.035522
v 6.733855 4.842891 2.842000
v -1.127238 11.721394 2.670890
v -2.766866 11.721394 1.124521
v -2.670888 11.721394 -1.127239
v -1.124519 11.721394 -2.766866
v 1.127241 11.721394 -2.670889
v 2.766868 11.721394 -1.124520
v 2.670891 11.721394 1.127240
v 1.124521 11.721394 2.766867
v 0.000001 11.721394 0.000000
vn -0.9681 -0.2472 -0.0413
vn 0.0425 -0.0633 -0.9971
vn 0.8126 -0.1472 -0.5640
vn 0.5881 0.5150 -0.6236
vn -0.0000 -1.0000 -0.0000
vn -0.8564 0.5150 -0.0365
vn -0.8804 -0.3143 0.3551
vn 0.7270 -0.0355 0.6857
vn -0.7260 -0.0633 -0.6847
vn 0.6736 -0.1903 -0.7142
vn 0.8564 0.5150 0.0365
vn 0.6236 0.5150 0.5881
vn -0.4742 0.6312 0.6137
vn -0.5305 0.6843 -0.5003
vn 0.5003 0.6843 -0.5305
vn 0.6307 0.7363 0.2451
vn -0.0654 0.7319 0.6783
vn 0.0311 0.6843 -0.7285
vn -0.8306 0.5568 0.0090
vn 0.7678 0.4659 -0.4398
vn 0.4385 -0.0590 0.8968
vn -0.0000 1.0000 -0.0000
vn 0.0365 0.5150 -0.8564
vn -0.0365 0.5150 0.8564
vn -0.6236 0.5150 -0.5881
vn -0.5881 0.5150 0.6236
vn -0.9164 -0.0676 -0.3944
vn 0.8535 -0.1804 -0.4888
vn -0.6378 -0.0858 0.7654
vn 0.9402 -0.1967 0.2782
vn 0.2650 -0.0670 -0.9619
vn -0.5105 0.6681 0.5413
vn 0.6431 0.4913 -0.5874
vn 0.3946 0.8401 0.3721
vn -0.0295 0.7213 0.6920
vn -0.7285 0.6843 -0.0311
vn 0.6536 0.7563 0.0279
vn -0.0202 -0.3090 0.9509
vt 0.193356 0.477186
vt 0.514809 -0.119649
vt 0.380149 -0.119649
vt 0.661099 -0.119649
vt 0.526439 0.655049
vt 0.526439 -0.119649
vt 0.391779 -0.119649
vt 0.126737 0.506560
vt 0.179214 -0.119649
vt 0.526439 0.689089
vt 0.467716 0.880351
vt 0.378387 0.689089
vt 0.514809 0.526439
vt 0.649469 0.391779
vt 0.514809 0.179214
vt 0.514809 0.689089
vt 0.456087 0.880351
vt 0.514809 0.880351
vt 0.430954 -0.119649
vt 0.753984 0.477186
vt 0.649469 0.661099
vt 0.514809 0.711289
vt 0.591888 0.506560
vt 0.380149 0.661099
vt 0.148784 0.430954
vt 0.514809 0.655049
vt 0.649469 -0.119649
vt 0.353550 0.506560
vt 0.380149 0.229404
vt 0.573532 0.880351
vt 0.366758 0.689089
vt 0.430954 0.463365
vt 0.662861 0.674490
vt 0.514809 0.763766
vt 0.514809 0.729671
vt 0.514809 0.323206
vt 0.224778 0.090357
vt 0.591888 0.126737
vt 0.366758 0.378387
vt 0.096306 0.430954
vt 0.752137 0.526439
vt 0.687698 0.699327
vt 0.662861 0.378387
vt 0.764777 0.353550
vt 0.229404 -0.119649
vt 0.456087 0.467716
vt 0.514809 0.445829
vt 0.456087 0.585161
vt 0.514809 0.607048
vt 0.573532 0.585161
vt 0.595419 0.526439
vt 0.573532 0.467716
vt 0.585161 0.880351
vt 0.526439 0.880351
vt 0.467716 0.880351
vt 0.662861 0.689089
vt 0.585161 0.880351
vt 0.674490 0.689089
vt 0.699327 0.655049
vt 0.699660 0.526439
vt 0.224778 0.482847
vt 0.687698 0.655049
vt 0.662861 0.689089
vt 0.311577 0.526439
vt 0.718042 0.526439
vt 0.090357 0.482847
vt 0.434200 0.526439
vt 0.674490 0.689089
s 0
f 13/1/1 7/2/1 2/3/1
f 4/4/2 20/5/2 6/6/2
f 3/7/3 24/8/3 8/9/3
f 21/10/4 31/11/4 14/12/4
f 9/13/5 3/14/5 8/15/5
f 23/16/6 27/17/6 28/18/6
f 5/19/7 13/20/7 2/4/7
f 4/21/5 9/13/5 7/22/5
f 24/23/8 1/3/8 8/2/8
f 2/24/5 9/13/5 5/25/5
f 22/26/9 4/27/9 7/2/9
f 6/6/10 15/28/10 3/7/10
f 9/13/5 1/29/5 5/25/5
f 25/16/11 31/30/11 32/18/11
f 25/16/12 33/17/12 10/31/12
f 19/10/13 13/20/13 18/32/13
f 16/33/14 22/34/14 23/35/14
f 14/12/15 20/5/15 21/10/15
f 25/36/16 11/37/16 24/38/16
f 10/39/17 18/40/17 11/37/17
f 16/33/18 20/41/18 17/42/18
f 12/31/19 22/26/19 13/1/19
f 14/43/20 24/38/20 15/44/20
f 1/45/21 18/32/21 5/19/21
f 34/13/22 33/46/22 32/47/22
f 27/48/22 34/13/22 28/49/22
f 29/50/22 34/13/22 30/51/22
f 34/13/22 31/52/22 30/51/22
f 21/10/23 29/53/23 30/54/23
f 19/10/24 33/55/24 26/54/24
f 23/16/25 29/30/25 16/56/25
f 19/10/26 27/57/26 12/58/26
f 13/1/27 22/26/27 7/2/27
f 4/4/2 17/59/2 20/5/2
f 3/7/28 15/28/28 24/8/28
f 21/10/4 30/54/4 31/11/4
f 9/13/5 6/60/5 3/14/5
f 23/16/6 12/31/6 27/17/6
f 5/19/29 18/32/29 13/20/29
f 4/21/5 6/60/5 9/13/5
f 24/23/30 11/61/30 1/3/30
f 2/24/5 7/22/5 9/13/5
f 22/26/9 17/62/9 4/27/9
f 6/6/31 20/5/31 15/28/31
f 9/13/5 8/15/5 1/29/5
f 25/16/11 14/63/11 31/30/11
f 25/16/12 32/18/12 33/17/12
f 19/10/32 12/58/32 13/20/32
f 16/33/14 17/42/14 22/34/14
f 14/12/33 15/28/33 20/5/33
f 25/36/34 10/39/34 11/37/34
f 10/39/35 19/64/35 18/40/35
f 16/33/18 21/65/18 20/41/18
f 12/31/36 23/16/36 22/26/36
f 14/43/37 25/36/37 24/38/37
f 1/45/38 11/66/38 18/32/38
f 34/13/22 26/67/22 33/46/22
f 27/48/22 26/67/22 34/13/22
f 29/50/22 28/49/22 34/13/22
f 34/13/22 32/47/22 31/52/22
f 21/10/23 16/68/23 29/53/23
f 19/10/24 10/12/24 33/55/24
f 23/16/25 28/18/25 29/30/25
f 19/10/26 26/54/26 27/57/26
