# Blender 4.1.1
# www.blender.org
o Cube.002
v -8.805298 -44.077366 8.805298
v -8.805298 -44.077366 -8.805298
v 8.805298 -44.077366 8.805298
v 8.805298 -44.077366 -8.805298
v -12.087192 -44.077366 0.000000
v 12.087192 -44.077366 0.000000
v 0.000000 -44.077366 -12.087192
v 0.000000 -44.077366 12.087192
v 0.000000 8.805298 0.000000
v 0.000000 -44.077366 0.000000
v -9.680931 8.805298 9.680930
v -11.305040 6.579436 11.305040
v -9.680930 8.805298 -9.680931
v -11.305040 6.579436 -11.305040
v 9.680930 8.805298 9.680931
v 11.305040 6.579436 11.305040
v 9.680931 8.805298 -9.680930
v 11.305040 6.579436 -11.305040
v -15.518633 6.579436 0.000000
v -13.289189 8.805298 0.000000
v 15.518633 6.579436 0.000000
v 13.289189 8.805298 0.000000
v 0.000000 6.579436 -15.518633
v 0.000000 8.805298 -13.289189
v 0.000000 6.579436 15.518633
v 0.000000 8.805298 13.289189
vn -0.3485 -0.0633 -0.9351
vn 0.9351 -0.0633 -0.3485
vn 0.3485 -0.0633 0.9351
vn -0.0000 1.0000 -0.0000
vn -0.0000 -1.0000 -0.0000
vn -0.9351 -0.0633 -0.3485
vn -0.3485 -0.0633 0.9351
vn 0.3485 -0.0633 -0.9351
vn 0.9351 -0.0633 0.3485
vn -0.6832 0.6843 -0.2547
vn 0.2547 0.6843 -0.6832
vn 0.6832 0.6843 0.2547
vn -0.2547 0.6843 0.6832
vn -0.6832 0.6843 0.2547
vn 0.6832 0.6843 -0.2547
vn -0.2547 0.6843 -0.6832
vn 0.2547 0.6843 0.6832
vn -0.9351 -0.0633 0.3485
vt 0.333494 -0.152637
vt 0.500000 0.805273
vt 0.500000 -0.152637
vt 0.666506 -0.152637
vt 0.500000 0.500000
vt 0.316936 0.316936
vt 0.500000 0.248704
vt 0.666506 0.333494
vt 0.500000 0.271434
vt 0.316936 0.683064
vt 0.500000 0.751296
vt 0.666506 0.666506
vt 0.500000 0.728566
vt 0.333494 0.666506
vt 0.271434 0.500000
vt 0.333494 0.333494
vt 0.683064 0.683064
vt 0.751296 0.500000
vt 0.683064 0.316936
vt 0.206546 0.500000
vt 0.248704 0.500000
vt 0.500000 0.793454
vt 0.793454 0.500000
vt 0.500000 0.206546
vt 0.286224 0.286224
vt 0.713776 0.713776
vt 0.286224 0.713776
vt 0.713776 0.286224
vt 0.286224 0.805273
vt 0.713776 0.805273
vt 0.728566 0.500000
s 0
f 2/1/1 23/2/1 7/3/1
f 4/4/2 21/2/2 6/3/2
f 3/4/3 25/2/3 8/3/3
f 9/5/4 11/6/4 26/7/4
f 10/5/5 3/8/5 8/9/5
f 13/10/4 9/5/4 24/11/4
f 19/2/6 2/4/6 5/3/6
f 4/12/5 10/5/5 7/13/5
f 25/2/7 1/1/7 8/3/7
f 2/14/5 10/5/5 5/15/5
f 23/2/8 4/4/8 7/3/8
f 21/2/9 3/1/9 6/3/9
f 10/5/5 1/16/5 5/15/5
f 17/17/4 9/5/4 22/18/4
f 9/5/4 15/19/4 22/18/4
f 13/10/10 19/20/10 20/21/10
f 17/17/11 23/22/11 24/11/11
f 15/19/12 21/23/12 22/18/12
f 11/6/13 25/24/13 26/7/13
f 11/6/14 19/20/14 12/25/14
f 17/17/15 21/23/15 18/26/15
f 13/10/16 23/22/16 14/27/16
f 15/19/17 25/24/17 16/28/17
f 1/1/18 19/2/18 5/3/18
f 2/1/1 14/29/1 23/2/1
f 4/4/2 18/30/2 21/2/2
f 3/4/3 16/30/3 25/2/3
f 9/5/4 20/21/4 11/6/4
f 10/5/5 6/31/5 3/8/5
f 13/10/4 20/21/4 9/5/4
f 19/2/6 14/30/6 2/4/6
f 4/12/5 6/31/5 10/5/5
f 25/2/7 12/29/7 1/1/7
f 2/14/5 7/13/5 10/5/5
f 23/2/8 18/30/8 4/4/8
f 21/2/9 16/29/9 3/1/9
f 10/5/5 8/9/5 1/16/5
f 17/17/4 24/11/4 9/5/4
f 9/5/4 26/7/4 15/19/4
f 13/10/10 14/27/10 19/20/10
f 17/17/11 18/26/11 23/22/11
f 15/19/12 16/28/12 21/23/12
f 11/6/13 12/25/13 25/24/13
f 11/6/14 20/21/14 19/20/14
f 17/17/15 22/18/15 21/23/15
f 13/10/16 24/11/16 23/22/16
f 15/19/17 26/7/17 25/24/17
f 1/1/18 12/29/18 19/2/18
