# Blender 4.1.1
# www.blender.org
o Cube.004
v -14.551761 -45.003983 23.281105
v -15.258052 -44.565624 -9.131178
v 11.375078 -44.005894 12.860625
v 10.032644 -45.225533 -10.032644
v -21.408724 -49.410164 6.804264
v 12.556204 -48.468956 0.377064
v -0.765720 -48.449467 -12.282402
v 0.202203 -48.940720 22.259668
v -1.682897 -56.440895 2.772257
v -11.608166 11.058518 13.321855
v -17.895525 -11.465978 26.436613
v -12.079026 11.350760 -10.564276
v -19.778967 -10.297018 -13.077510
v 11.173273 11.723910 10.655384
v 15.735233 -8.804411 14.040732
v 10.278318 13.448016 -10.278317
v 12.155412 -1.907992 -12.155411
v -27.830173 -12.281707 6.748793
v -16.630392 10.854586 1.371198
v 17.663555 -3.287275 -0.000000
v 14.509460 13.103194 0.000001
v -1.379984 -3.560121 -17.455282
v -0.344996 13.034982 -14.457393
v 2.491708 -10.403957 27.310675
v 0.622927 11.324023 16.449911
v -6.661345 24.581814 0.000002
v -5.734799 23.249371 -5.734797
v 0.000000 24.581812 -6.661344
v 5.734799 23.249372 -5.734797
v 6.661346 24.581812 0.000002
v 5.734799 23.249371 5.734801
v 0.000000 24.581812 6.661348
v -5.734799 23.249371 5.734801
v 0.000000 27.246683 0.000003
v -18.659983 -48.617970 16.609779
v -8.538210 -47.338619 -11.231105
v 11.611994 -48.924740 -5.919100
v 6.980931 -48.063839 17.430870
v -18.928745 -48.577358 -2.801146
v 12.209874 -47.171211 7.272865
v -11.943468 -55.825424 4.889461
v 5.870517 -48.926590 -11.577769
v -7.756910 -48.339870 23.996494
v 6.629660 -55.807362 1.242059
v -1.252707 -55.778744 -5.960363
v -1.131716 -55.775002 13.140362
v -23.293753 1.362317 4.100195
v -15.524627 10.930822 -5.240189
v -17.043293 2.788812 -12.608077
v -25.867516 -11.976770 -4.529360
v -0.991863 7.630957 -16.836018
v 5.546045 13.396389 -13.305040
v 11.813663 8.818425 -11.813663
v 6.437400 -2.114508 -15.779593
v 16.985714 7.827065 0.000000
v 13.826149 12.413553 5.636302
v 14.386661 3.861625 12.944859
v 17.864023 -6.045844 6.845563
v 1.790915 2.711950 22.800171
v -5.886868 11.208238 16.158110
v -15.689568 1.948622 20.827213
v -7.853286 -10.867106 29.387697
v -15.301592 10.923869 8.015078
v -24.975374 -12.004584 18.082212
v 13.311553 13.404914 -5.589169
v 15.805625 -2.080403 -6.609898
v -6.633622 12.204908 -13.626364
v -10.840306 -6.880428 -17.037163
v 6.584364 11.415310 14.449635
v 10.590680 -10.038815 21.489155
v -16.649128 -30.567017 26.383579
v -27.153442 -31.452271 7.623330
v 1.738325 -30.073713 27.244242
v -8.021627 18.757891 -7.832283
v 7.908409 18.804537 7.843674
v -7.962770 18.721363 8.176983
v -18.032839 -29.684248 -11.508489
v -1.044454 -25.147173 -16.040026
v 0.077866 18.927275 10.981877
v 16.217438 -24.977709 0.047133
v 14.010039 -28.561535 13.696127
v 11.376137 -23.582390 -11.376137
v -6.297071 24.353567 -3.180186
v 3.180188 24.353567 -6.297068
v 6.297070 24.353567 3.180191
v -3.180188 24.353567 6.297073
v -6.297070 24.353567 3.180190
v 6.297071 24.353571 -3.180186
v -3.180188 24.353567 -6.297068
v 3.180188 24.353567 6.297073
v 0.000000 26.913578 3.131024
v -3.131021 26.913578 0.000003
v 0.000000 26.913574 -3.131019
v 3.131021 26.913576 0.000003
v -0.043124 19.141142 -10.732809
v 10.739319 19.149672 0.000002
v 7.796539 19.020048 -7.796539
v -11.004436 18.868593 0.171401
v -9.580109 -27.416632 -15.404716
v 14.647819 -24.179789 -6.247513
v 9.123243 -29.813356 21.207529
v 10.029910 19.020283 4.257081
v 6.480271 -54.728271 9.953296
v -4.381744 18.994202 -10.004936
v -24.548906 -31.163054 -3.266309
v 6.290506 -55.376694 -6.225197
v -7.425694 -30.373459 29.244116
v -10.353865 -54.772114 -4.320996
v 6.122848 -24.204540 -14.625645
v 16.142521 -26.821903 6.656654
v -10.234783 -54.877209 15.146127
v 4.375586 18.895502 10.107848
v -4.288400 18.869616 10.321405
v -21.852392 1.581490 -5.335169
v 6.300081 8.669991 -15.319890
v 16.818075 5.844345 6.565462
v -7.286522 2.379061 23.796934
v -21.211170 1.561499 13.619636
v 15.338602 8.694505 -6.424063
v -9.433442 5.244488 -16.240225
v 9.285250 2.974396 18.751991
v -23.900188 -31.185598 18.453518
v -3.014030 26.592806 3.014033
v -3.014030 26.592804 -3.014028
v 3.014030 26.592802 -3.014028
v 3.014030 26.592806 3.014033
v 9.965588 19.144203 -4.251185
v -10.214341 18.834070 4.554427
v 4.245798 19.143137 -9.964771
v -10.242219 18.834942 -4.207564
vn -0.4832 -0.4167 0.7700
vn -0.5536 -0.3476 -0.7568
vn 0.8724 -0.2751 0.4041
vn 0.6880 -0.2039 -0.6965
vn -0.8120 -0.5836 0.0100
vn 0.9117 -0.4109 -0.0000
vn -0.0463 -0.4247 -0.9042
vn 0.3333 -0.5545 0.7625
vn 0.0066 -1.0000 -0.0058
vn -0.5113 0.6536 0.5580
vn -0.5428 0.1790 0.8206
vn -0.6141 0.5210 -0.5929
vn -0.6471 0.0256 -0.7619
vn 0.6570 0.4770 0.5838
vn 0.8951 0.0300 0.4449
vn 0.6198 0.4765 -0.6235
vn 0.7013 -0.0019 -0.7128
vn -0.9907 0.1315 0.0348
vn -0.8167 0.5770 0.0079
vn 0.9901 0.0096 -0.1398
vn 0.8800 0.4749 -0.0007
vn 0.0754 0.0027 -0.9971
vn -0.0137 0.4623 -0.8866
vn 0.3842 0.1540 0.9103
vn 0.1087 0.5800 0.8074
vn -0.6879 0.7258 -0.0011
vn -0.5376 0.6491 -0.5382
vn 0.0003 0.7232 -0.6906
vn 0.5379 0.6490 -0.5381
vn 0.6901 0.7237 -0.0000
vn 0.5398 0.6478 0.5375
vn -0.0005 0.7267 0.6870
vn -0.5315 0.6590 0.5322
vn -0.0000 1.0000 -0.0000
vn -0.6948 -0.5649 0.4451
vn -0.2909 -0.4252 -0.8571
vn 0.8463 -0.4072 -0.3435
vn 0.6548 -0.4669 0.5943
vn -0.7329 -0.5296 -0.4270
vn 0.9006 -0.3831 0.2052
vn -0.3524 -0.9355 -0.0242
vn 0.3150 -0.4138 -0.8541
vn -0.0835 -0.5607 0.8238
vn 0.4689 -0.8829 0.0237
vn -0.0668 -0.8872 -0.4565
vn 0.1444 -0.9251 0.3513
vn -0.8963 0.4429 0.0232
vn -0.7848 0.5493 -0.2868
vn -0.6618 0.3209 -0.6775
vn -0.9238 0.0707 -0.3762
vn 0.0124 0.2366 -0.9715
vn 0.3141 0.4700 -0.8249
vn 0.6834 0.2349 -0.6912
vn 0.3770 -0.0014 -0.9262
vn 0.9663 0.2517 -0.0535
vn 0.8221 0.4733 0.3165
vn 0.7908 0.2867 0.5408
vn 0.9895 0.0150 0.1436
vn 0.2568 0.4567 0.8517
vn -0.1854 0.6389 0.7466
vn -0.5168 0.5272 0.6745
vn -0.0588 0.1921 0.9796
vn -0.7308 0.6172 0.2915
vn -0.8762 0.1577 0.4553
vn 0.8183 0.4752 -0.3234
vn 0.9111 0.0015 -0.4121
vn -0.3279 0.4817 -0.8127
vn -0.2450 0.0114 -0.9695
vn 0.4091 0.5139 0.7540
vn 0.7002 0.0830 0.7091
vn -0.5248 -0.1359 0.8403
vn -0.9842 -0.1744 0.0303
vn 0.4244 -0.1370 0.8950
vn -0.5884 0.5569 -0.5862
vn 0.6021 0.5453 0.5832
vn -0.5558 0.6133 0.5612
vn -0.5892 -0.1705 -0.7898
vn 0.0785 -0.1050 -0.9914
vn 0.0139 0.5937 0.8046
vn 0.9854 -0.1046 -0.1346
vn 0.9083 -0.1292 0.3980
vn 0.7004 -0.0690 -0.7104
vn -0.6421 0.7131 -0.2814
vn 0.2807 0.7122 -0.6434
vn 0.6435 0.7118 0.2814
vn -0.2799 0.7168 0.6387
vn -0.6388 0.7166 0.2800
vn 0.6429 0.7125 -0.2809
vn -0.2810 0.7119 -0.6436
vn 0.2822 0.7137 0.6411
vn -0.0000 0.9411 0.3381
vn -0.3381 0.9411 -0.0000
vn -0.0000 0.9411 -0.3381
vn 0.3381 0.9411 -0.0000
vn -0.0042 0.5585 -0.8295
vn 0.8274 0.5616 0.0016
vn 0.5905 0.5486 -0.5919
vn -0.8082 0.5890 -0.0016
vn -0.2170 -0.1430 -0.9656
vn 0.9134 -0.0820 -0.3987
vn 0.7348 -0.1317 0.6654
vn 0.7773 0.5509 0.3037
vn 0.5264 -0.7975 0.2949
vn -0.3029 0.5538 -0.7756
vn -0.8856 -0.1777 -0.4291
vn 0.3873 -0.8222 -0.4171
vn -0.0319 -0.1388 0.9898
vn -0.3538 -0.8273 -0.4363
vn 0.3692 -0.0810 -0.9258
vn 0.9844 -0.1271 0.1214
vn -0.2527 -0.8856 0.3896
vn 0.3183 0.5715 0.7563
vn -0.2624 0.6094 0.7482
vn -0.8690 0.3821 -0.3145
vn 0.3511 0.2326 -0.9070
vn 0.9306 0.2592 0.2585
vn -0.1118 0.5147 0.8501
vn -0.7946 0.4952 0.3512
vn 0.8954 0.2407 -0.3746
vn -0.3175 0.2706 -0.9088
vn 0.5636 0.3637 0.7417
vn -0.8575 -0.1632 0.4879
vn -0.3152 0.8952 0.3152
vn -0.3152 0.8952 -0.3152
vn 0.3152 0.8952 -0.3152
vn 0.3152 0.8952 0.3152
vn 0.7747 0.5569 -0.2993
vn -0.7465 0.6004 0.2869
vn 0.2979 0.5556 -0.7763
vn -0.7644 0.5736 -0.2943
vt 0.666625 0.937468
vt 0.734708 0.794453
vt 0.725079 0.960379
vt 0.653202 0.659949
vt 0.655840 0.813308
vt 0.736616 0.632985
vt 0.806298 0.787735
vt 0.790162 0.976281
vt 0.036075 0.587250
vt 0.083847 0.411534
vt 0.071324 0.620392
vt 0.036058 0.403930
vt 0.091835 0.224693
vt 0.149265 0.237754
vt 0.138344 0.420963
vt 0.125290 0.619102
vt 0.228591 0.585874
vt 0.299775 0.468584
vt 0.257392 0.621118
vt 0.246281 0.456049
vt 0.312674 0.301708
vt 0.582377 0.454708
vt 0.682967 0.380189
vt 0.640307 0.503794
vt 0.982849 0.480080
vt 0.862068 0.399790
vt 0.967275 0.414571
vt 0.652120 0.098702
vt 0.715430 0.082840
vt 0.670883 0.135348
vt 0.150642 0.098539
vt 0.180782 0.049279
vt 0.195922 0.106385
vt 0.146748 0.046700
vt 0.167734 0.003070
vt 0.699508 0.057917
vt 0.744468 0.048285
vt 0.489910 0.804950
vt 0.415758 0.859624
vt 0.408718 0.791733
vt 0.989905 0.678095
vt 0.920633 0.614658
vt 0.984575 0.605663
vt 0.931608 0.539734
vt 0.335393 0.847809
vt 0.313974 0.783973
vt 0.182450 0.731506
vt 0.112997 0.737847
vt 0.130196 0.704801
vt 0.161968 0.781659
vt 0.089627 0.763801
vt 0.061526 0.729055
vt 0.067379 0.706563
vt 0.078354 0.681730
vt 0.503718 0.631185
vt 0.581064 0.470389
vt 0.573562 0.617041
vt 0.497411 0.318568
vt 0.500911 0.480875
vt 0.582376 0.695055
vt 0.582376 0.845152
vt 0.619868 0.985402
vt 1.000000 0.244598
vt 0.919248 0.192177
vt 0.999779 0.190348
vt 0.925953 0.782365
vt 0.929552 0.725792
vt 0.982920 0.740335
vt 0.552461 0.822871
vt 0.484726 0.876067
vt 0.972217 0.345573
vt 0.765147 0.415314
vt 0.713347 0.535081
vt 0.788102 0.539734
vt 0.871166 0.321160
vt 0.982849 0.289525
vt 1.000000 0.060857
vt 0.910434 0.113925
vt 0.940307 0.030516
vt 0.995556 0.123483
vt 0.552461 0.744206
vt 0.489706 0.716074
vt 0.862068 0.091578
vt 0.890968 0.000000
vt 0.842011 0.992244
vt 0.815584 0.620574
vt 0.861281 0.796482
vt 0.000000 0.219768
vt -0.000000 0.406987
vt 0.873425 0.976407
vt 0.192246 0.439057
vt 0.182392 0.610679
vt 0.205215 0.263722
vt 0.260129 0.289391
vt 0.469354 0.631185
vt 0.406349 0.712491
vt 0.388123 0.637056
vt 0.312674 0.714810
vt 0.318207 0.658031
vt 0.754139 0.190456
vt 0.743802 0.101632
vt 0.778496 0.114889
vt 0.706507 0.166995
vt 0.767773 0.049639
vt 0.794010 0.056659
vt 0.853117 0.200254
vt 0.813830 0.120604
vt 0.843635 0.117507
vt 0.806607 0.202883
vt 0.819261 0.062608
vt 0.837315 0.071670
vt 0.495851 0.118283
vt 0.569445 0.192324
vt 0.497806 0.201055
vt 0.089627 0.843069
vt 0.170443 0.890583
vt 0.117248 0.921712
vt 0.230203 0.953750
vt 0.167626 0.994536
vt 0.582376 0.307743
vt 0.230203 0.695058
vt 0.221928 0.756830
vt 0.191966 0.683211
vt 0.225283 0.647152
vt 0.007989 0.128701
vt 0.039779 0.220454
vt 0.821652 0.539734
vt 0.875395 0.627481
vt 0.152666 0.143622
vt 0.611426 0.138477
vt 0.253948 0.181596
vt 0.205989 0.162854
vt 0.722062 0.275768
vt 0.862068 0.305569
vt 0.794520 0.301699
vt 0.386584 0.124525
vt 0.415848 0.205928
vt 0.343145 0.207190
vt 0.439027 0.122286
vt 0.398811 0.323991
vt 0.312674 0.324620
vt 0.102417 0.093643
vt 0.046420 0.129796
vt 0.058447 0.090938
vt 0.096993 0.133542
vt 0.130654 0.822327
vt 0.203958 0.828881
vt 0.750874 0.547320
vt 0.679403 0.567851
vt 0.624918 0.190023
vt 0.662855 0.237122
vt 0.619474 0.330150
vt 0.582377 0.271991
vt 0.350598 0.604993
vt 0.405289 0.485984
vt 0.417314 0.631185
vt 0.322046 0.485617
vt 0.801948 0.004311
vt 0.824123 0.030707
vt 0.800497 0.023193
vt 0.017080 0.724208
vt 0.000036 0.685527
vt 0.016411 0.689520
vt 0.845114 0.052230
vt 0.036722 0.693732
vt 0.045212 0.669555
vt 0.038709 0.726439
vt 0.024491 0.664240
vt 0.087176 0.657348
vt 0.077908 0.628987
vt 0.097225 0.640305
vt 0.055484 0.647087
vt 0.035902 0.641066
vt 0.058546 0.621118
vt 0.741417 0.007315
vt 0.775326 0.018416
vt 0.743165 0.026551
vt 0.775776 0.000000
vt 0.077105 0.044292
vt 0.110204 0.044989
vt 0.092442 0.008921
vt 0.115017 0.000656
vt 0.142084 -0.000000
vt 0.448145 0.052515
vt 0.485351 0.049188
vt 0.413195 0.055800
vt 0.423931 0.015608
vt 0.445191 0.004532
vt 0.471499 0.000380
vt 0.137333 0.640525
vt 0.188016 0.642311
vt 0.138862 0.670563
vt 0.060270 0.775807
vt 0.545844 0.112807
vt 0.518437 0.046268
vt 0.496163 -0.000000
vt 0.887114 0.473553
vt 0.928647 0.671818
vt 0.896159 0.568283
vt 0.930879 0.253401
vt 0.896159 0.760803
vt 0.539918 0.885603
vt 0.845543 0.423674
vt 0.915681 0.253401
vt 0.896159 0.811568
vt 0.877435 0.548319
vt 0.826468 0.012768
vt 0.000000 0.717782
s 1
f 2/1/2 99/2/99 36/3/36
f 13/4/13 99/2/99 77/5/77
f 68/6/68 78/7/78 99/2/99
f 99/2/99 7/8/7 36/3/36
f 4/9/4 100/10/100 37/11/37
f 82/12/82 66/13/66 100/10/100
f 100/10/100 20/14/20 80/15/80
f 37/11/37 80/15/80 6/16/6
f 3/17/3 101/18/101 38/19/38
f 81/20/81 70/21/70 101/18/101
f 101/22/101 24/23/24 73/24/73
f 38/25/38 73/26/73 8/27/8
f 56/28/56 75/29/75 14/30/14
f 21/31/21 102/32/102 56/33/56
f 96/34/96 85/35/85 102/32/102
f 102/36/102 31/37/31 75/29/75
f 9/38/9 103/39/103 46/40/46
f 44/41/44 40/42/40 103/43/103
f 40/42/40 38/44/38 103/43/103
f 46/40/46 38/45/38 8/46/8
f 23/47/23 104/48/104 95/49/95
f 67/50/67 74/51/74 104/48/104
f 104/48/104 27/52/27 89/53/89
f 95/49/95 89/53/89 28/54/28
f 5/55/5 105/56/105 39/57/39
f 18/58/18 105/56/105 72/59/72
f 50/60/50 77/5/77 105/61/105
f 105/61/105 2/1/2 39/62/39
f 42/63/42 45/64/45 7/65/7
f 42/66/42 37/67/37 106/68/106
f 37/67/37 44/41/44 106/68/106
f 45/69/45 44/70/44 9/38/9
f 73/26/73 43/71/43 8/27/8
f 73/24/73 62/72/62 107/73/107
f 62/72/62 71/74/71 107/73/107
f 107/75/107 1/76/1 43/71/43
f 2/77/2 108/78/108 39/79/39
f 36/80/36 45/64/45 108/78/108
f 108/81/108 9/38/9 41/82/41
f 39/79/39 41/83/41 5/84/5
f 78/7/78 42/85/42 7/8/7
f 22/86/22 109/87/109 78/7/78
f 54/88/54 82/12/82 109/89/109
f 109/87/109 4/90/4 42/85/42
f 6/16/6 110/91/110 40/92/40
f 80/15/80 58/93/58 110/91/110
f 110/91/110 15/94/15 81/20/81
f 110/91/110 3/17/3 40/92/40
f 5/95/5 111/96/111 35/97/35
f 41/82/41 46/40/46 111/96/111
f 111/96/111 8/46/8 43/98/43
f 111/96/111 1/99/1 35/97/35
f 25/100/25 112/101/112 79/102/79
f 69/103/69 75/29/75 112/101/112
f 112/101/112 31/37/31 90/104/90
f 79/102/79 90/104/90 32/105/32
f 10/106/10 113/107/113 76/108/76
f 25/100/25 113/107/113 60/109/60
f 79/102/79 86/110/86 113/107/113
f 113/107/113 33/111/33 76/108/76
f 19/112/19 114/113/114 47/114/47
f 48/115/48 49/116/49 114/117/114
f 114/117/114 13/118/13 50/119/50
f 47/114/47 50/120/50 18/58/18
f 23/47/23 115/121/115 51/122/51
f 52/123/52 53/124/53 115/121/115
f 115/125/115 17/126/17 54/88/54
f 51/127/51 54/128/54 22/86/22
f 56/33/56 55/129/55 21/31/21
f 14/30/14 116/130/116 56/28/56
f 57/131/57 58/93/58 116/132/116
f 116/132/116 20/14/20 55/129/55
f 60/109/60 59/133/59 25/100/25
f 60/109/60 61/134/61 117/135/117
f 61/134/61 62/72/62 117/135/117
f 117/135/117 24/23/24 59/133/59
f 10/136/10 118/137/118 61/138/61
f 63/139/63 47/114/47 118/137/118
f 118/137/118 18/58/18 64/140/64
f 61/138/61 64/140/64 11/141/11
f 65/142/65 53/143/53 16/144/16
f 21/31/21 119/145/119 65/142/65
f 55/129/55 66/13/66 119/145/119
f 119/145/119 17/126/17 53/143/53
f 12/146/12 120/147/120 49/116/49
f 67/50/67 51/122/51 120/147/120
f 120/148/120 22/86/22 68/6/68
f 49/149/49 68/6/68 13/4/13
f 69/103/69 57/150/57 14/30/14
f 25/100/25 121/151/121 69/103/69
f 59/133/59 70/152/70 121/151/121
f 121/151/121 15/153/15 57/150/57
f 1/154/1 122/155/122 35/156/35
f 71/157/71 64/140/64 122/155/122
f 64/140/64 72/59/72 122/155/122
f 35/156/35 72/59/72 5/55/5
f 34/158/34 123/159/123 91/160/91
f 26/161/26 123/162/123 92/163/92
f 87/164/87 86/110/86 123/159/123
f 123/159/123 32/105/32 91/160/91
f 28/54/28 124/165/124 93/166/93
f 89/53/89 83/167/83 124/165/124
f 124/165/124 26/161/26 92/163/92
f 124/165/124 34/168/34 93/166/93
f 84/169/84 88/170/88 29/171/29
f 28/54/28 125/172/125 84/169/84
f 125/172/125 34/168/34 94/173/94
f 125/172/125 30/174/30 88/170/88
f 30/175/30 126/176/126 85/177/85
f 34/158/34 126/176/126 94/178/94
f 126/176/126 32/105/32 90/104/90
f 85/177/85 90/104/90 31/37/31
f 65/142/65 96/34/96 21/31/21
f 65/142/65 97/179/97 127/180/127
f 127/180/127 29/181/29 88/182/88
f 96/34/96 88/182/88 30/183/30
f 19/112/19 128/184/128 98/185/98
f 63/139/63 76/186/76 128/184/128
f 128/184/128 33/187/33 87/188/87
f 98/185/98 87/188/87 26/189/26
f 52/123/52 97/190/97 16/191/16
f 52/123/52 95/49/95 129/192/129
f 95/49/95 84/169/84 129/192/129
f 129/192/129 29/171/29 97/190/97
f 12/146/12 130/193/130 74/51/74
f 48/194/48 98/185/98 130/195/130
f 98/185/98 83/196/83 130/195/130
f 130/193/130 27/52/27 74/51/74
f 2/1/2 77/5/77 99/2/99
f 13/4/13 68/6/68 99/2/99
f 68/6/68 22/86/22 78/7/78
f 99/2/99 78/7/78 7/8/7
f 4/9/4 82/12/82 100/10/100
f 82/12/82 17/126/17 66/13/66
f 100/10/100 66/13/66 20/14/20
f 37/11/37 100/10/100 80/15/80
f 3/17/3 81/20/81 101/18/101
f 81/20/81 15/94/15 70/21/70
f 101/22/101 70/152/70 24/23/24
f 38/25/38 101/197/101 73/26/73
f 56/28/56 102/36/102 75/29/75
f 21/31/21 96/34/96 102/32/102
f 96/34/96 30/183/30 85/35/85
f 102/36/102 85/177/85 31/37/31
f 9/38/9 44/70/44 103/39/103
f 44/41/44 6/198/6 40/42/40
f 40/42/40 3/199/3 38/44/38
f 46/40/46 103/39/103 38/45/38
f 23/47/23 67/50/67 104/48/104
f 67/50/67 12/146/12 74/51/74
f 104/48/104 74/51/74 27/52/27
f 95/49/95 104/48/104 89/53/89
f 5/55/5 72/59/72 105/56/105
f 18/58/18 50/120/50 105/56/105
f 50/60/50 13/4/13 77/5/77
f 105/61/105 77/5/77 2/1/2
f 42/63/42 106/200/106 45/64/45
f 42/66/42 4/201/4 37/67/37
f 37/67/37 6/198/6 44/41/44
f 45/69/45 106/202/106 44/70/44
f 73/26/73 107/75/107 43/71/43
f 73/24/73 24/23/24 62/72/62
f 62/72/62 11/203/11 71/74/71
f 107/75/107 71/204/71 1/76/1
f 2/77/2 36/80/36 108/78/108
f 36/80/36 7/65/7 45/64/45
f 108/81/108 45/69/45 9/38/9
f 39/79/39 108/78/108 41/83/41
f 78/7/78 109/87/109 42/85/42
f 22/86/22 54/128/54 109/87/109
f 54/88/54 17/126/17 82/12/82
f 109/87/109 82/205/82 4/90/4
f 6/16/6 80/15/80 110/91/110
f 80/15/80 20/14/20 58/93/58
f 110/91/110 58/93/58 15/94/15
f 110/91/110 81/20/81 3/17/3
f 5/95/5 41/82/41 111/96/111
f 41/82/41 9/38/9 46/40/46
f 111/96/111 46/40/46 8/46/8
f 111/96/111 43/98/43 1/99/1
f 25/100/25 69/103/69 112/101/112
f 69/103/69 14/30/14 75/29/75
f 112/101/112 75/29/75 31/37/31
f 79/102/79 112/101/112 90/104/90
f 10/106/10 60/109/60 113/107/113
f 25/100/25 79/102/79 113/107/113
f 79/102/79 32/105/32 86/110/86
f 113/107/113 86/110/86 33/111/33
f 19/112/19 48/194/48 114/113/114
f 48/115/48 12/146/12 49/116/49
f 114/117/114 49/116/49 13/118/13
f 47/114/47 114/113/114 50/120/50
f 23/47/23 52/123/52 115/121/115
f 52/123/52 16/191/16 53/124/53
f 115/125/115 53/143/53 17/126/17
f 51/127/51 115/206/115 54/128/54
f 56/33/56 116/132/116 55/129/55
f 14/30/14 57/150/57 116/130/116
f 57/131/57 15/94/15 58/93/58
f 116/132/116 58/93/58 20/14/20
f 60/109/60 117/135/117 59/133/59
f 60/109/60 10/106/10 61/134/61
f 61/134/61 11/203/11 62/72/62
f 117/135/117 62/72/62 24/23/24
f 10/136/10 63/139/63 118/137/118
f 63/139/63 19/112/19 47/114/47
f 118/137/118 47/114/47 18/58/18
f 61/138/61 118/137/118 64/140/64
f 65/142/65 119/145/119 53/143/53
f 21/31/21 55/129/55 119/145/119
f 55/129/55 20/14/20 66/13/66
f 119/145/119 66/13/66 17/126/17
f 12/146/12 67/50/67 120/147/120
f 67/50/67 23/47/23 51/122/51
f 120/148/120 51/127/51 22/86/22
f 49/149/49 120/148/120 68/6/68
f 69/103/69 121/151/121 57/150/57
f 25/100/25 59/133/59 121/151/121
f 59/133/59 24/23/24 70/152/70
f 121/151/121 70/152/70 15/153/15
f 1/154/1 71/157/71 122/155/122
f 71/157/71 11/141/11 64/140/64
f 64/140/64 18/58/18 72/59/72
f 35/156/35 122/155/122 72/59/72
f 34/158/34 92/207/92 123/159/123
f 26/161/26 87/208/87 123/162/123
f 87/164/87 33/111/33 86/110/86
f 123/159/123 86/110/86 32/105/32
f 28/54/28 89/53/89 124/165/124
f 89/53/89 27/52/27 83/167/83
f 124/165/124 83/167/83 26/161/26
f 124/165/124 92/163/92 34/168/34
f 84/169/84 125/172/125 88/170/88
f 28/54/28 93/166/93 125/172/125
f 125/172/125 93/166/93 34/168/34
f 125/172/125 94/173/94 30/174/30
f 30/175/30 94/178/94 126/176/126
f 34/158/34 91/160/91 126/176/126
f 126/176/126 91/160/91 32/105/32
f 85/177/85 126/176/126 90/104/90
f 65/142/65 127/180/127 96/34/96
f 65/142/65 16/144/16 97/179/97
f 127/180/127 97/179/97 29/181/29
f 96/34/96 127/180/127 88/182/88
f 19/112/19 63/139/63 128/184/128
f 63/139/63 10/136/10 76/186/76
f 128/184/128 76/186/76 33/187/33
f 98/185/98 128/184/128 87/188/87
f 52/123/52 129/192/129 97/190/97
f 52/123/52 23/47/23 95/49/95
f 95/49/95 28/54/28 84/169/84
f 129/192/129 84/169/84 29/171/29
f 12/146/12 48/115/48 130/193/130
f 48/194/48 19/112/19 98/185/98
f 98/185/98 26/189/26 83/196/83
f 130/193/130 83/167/83 27/52/27
