# Blender 4.1.1
# www.blender.org
o Cube.020
v 0.684842 0.743665 0.115061
v 0.084578 0.788090 -0.541312
v -0.067303 0.724874 0.602139
v -0.567465 0.766540 -0.126258
v 0.432536 0.798800 -0.247968
v -0.391549 0.773068 0.266196
v -0.320800 0.784965 -0.443120
v 0.417919 0.729144 0.379692
v 0.035719 0.834069 -0.027253
v 1.117550 0.234119 0.178943
v 0.839679 0.665415 0.130442
v 0.186763 0.319506 -0.959282
v 0.141170 0.721175 -0.719704
v -0.226386 0.321132 1.027214
v -0.158516 0.690832 0.783502
v -1.000974 0.355562 -0.176257
v -0.762543 0.707707 -0.136128
v 0.632674 0.740684 -0.415231
v 0.818920 0.367013 -0.557678
v -0.691591 0.734823 0.427830
v -0.886187 0.525404 0.564335
v -0.444812 0.727067 -0.618604
v -0.597157 0.349602 -0.838198
v 0.565525 0.669105 0.548834
v 0.749712 0.257184 0.778326
v 1.447423 -1.320160 -1.015323
v 0.370608 -1.280120 -1.872393
v -1.024773 -1.323230 -1.467827
v -1.947641 -1.268500 -0.311862
v -1.616218 -1.283525 1.109391
v -0.434685 -1.244007 2.036775
v 1.235028 -1.319653 1.365266
v 2.088909 -1.289519 0.311953
v -0.029279 -1.059365 -0.064519
v 0.603823 0.774537 -0.042361
v -0.104700 0.794086 -0.521314
v -0.508101 0.773324 0.042462
v 0.159787 0.734106 0.522859
v 0.240842 0.805560 -0.425847
v -0.227905 0.752932 0.484724
v 0.257732 0.830927 -0.151463
v -0.478484 0.774071 -0.283768
v 0.608474 0.747899 0.238658
v -0.186457 0.819271 0.123541
v -0.173976 0.830629 -0.265427
v 0.254553 0.793244 0.207415
v 0.686277 0.694599 -0.462655
v 0.536685 0.414819 -0.817474
v 0.156354 0.669968 -0.785365
v 0.415179 0.766131 -0.614778
v -0.479330 0.683519 -0.673676
v -0.863268 0.363013 -0.549565
v -0.821100 0.653460 -0.146682
v -0.649539 0.710491 -0.414332
v -0.763826 0.694472 0.470449
v -0.625383 0.518741 0.867122
v -0.179246 0.653414 0.837370
v -0.490300 0.742822 0.680496
v 0.601212 0.627664 0.598067
v 1.033085 0.342825 0.508618
v 0.891273 0.617089 0.137793
v 0.800594 0.704733 0.374005
v 1.028660 0.324471 -0.200657
v 0.804924 0.710950 -0.147162
v -1.009970 0.477689 0.205449
v -0.789673 0.725832 0.151397
v -0.219015 0.356037 -0.973115
v -0.171458 0.733478 -0.729167
v 0.281445 0.315472 0.977024
v 0.235815 0.696286 0.729109
v 0.768545 0.710494 0.125506
v 0.554205 0.769634 -0.340031
v 0.514218 0.698888 0.485849
v 1.719852 -0.834240 0.275211
v 0.882412 -0.874687 0.954643
v 0.290666 -0.825741 -1.471699
v 0.112856 0.760095 -0.627380
v -0.402027 0.759668 -0.552323
v 1.048764 -0.868751 -0.719935
v -0.573919 0.754691 0.371159
v -0.116148 0.711822 0.704430
v -0.667738 0.744232 -0.128959
v 0.866234 -1.343651 -1.608775
v -1.657827 -1.344782 -0.861088
v -1.026473 -1.307789 1.770272
v 1.870244 -1.350528 0.782656
v 1.905840 -1.348677 -0.260011
v -1.926133 -1.320297 0.301070
v -0.228619 -1.346611 -1.819496
v 0.301088 -1.331165 1.861503
v 0.684996 -1.237596 0.781424
v 0.859606 -1.237659 -0.656821
v -0.643600 -1.238043 -0.898345
v -0.967626 -1.233079 0.623097
v -0.322683 -0.805839 1.447431
v -0.761944 -0.871483 -1.078079
v -1.001752 -0.828902 0.671697
v -1.477001 -0.818301 -0.245847
v -0.160118 0.766814 -0.638603
v -0.668638 0.750002 0.121519
v 0.220861 0.716772 0.645993
v -0.248201 -0.886484 -1.180792
v 0.005600 0.773577 0.350665
v 0.285945 -0.867818 1.114809
v 0.351486 0.787910 -0.516763
v -0.357999 0.815008 -0.108198
v 0.721690 0.730395 0.328512
v 0.048295 0.829535 -0.364558
v -0.574123 0.743916 -0.370332
v -0.394847 0.750348 0.603843
v 0.462216 0.799359 0.069637
v 1.213689 -0.891536 0.603832
v 0.628573 -0.884023 -0.977663
v 0.455619 0.722864 -0.685835
v -0.706498 0.668433 -0.450559
v -0.542585 0.702605 0.740775
v 0.861697 0.669361 0.410391
v 0.864839 0.665366 -0.166558
v -0.864752 0.681266 0.166014
v -0.180159 0.687961 -0.798807
v 0.244136 0.662011 0.791571
v 0.718443 0.744914 -0.108581
v 1.469564 -1.356414 0.168201
v 0.231132 -1.355468 -1.384227
v -1.444252 -1.352502 -0.232038
v -0.286746 -1.349681 1.399738
v -0.684174 -0.801879 0.986215
v -1.137550 -0.849625 0.249561
v 1.260532 -0.887057 -0.242067
v -1.029973 -0.885853 -0.640106
vn 0.2818 0.9580 0.0535
vn 0.0399 0.9627 -0.2676
vn 0.0293 0.9865 0.1608
vn -0.2206 0.9751 -0.0225
vn 0.1609 0.9851 -0.0599
vn -0.0955 0.9916 0.0876
vn -0.1399 0.9809 -0.1350
vn 0.1092 0.9735 0.2009
vn 0.0135 0.9975 0.0689
vn 0.9363 0.3512 0.0062
vn 0.6072 0.7940 0.0309
vn 0.1819 0.3156 -0.9313
vn 0.0518 0.8683 -0.4933
vn -0.0833 0.3093 0.9473
vn 0.0202 0.8961 0.4433
vn -0.9211 0.3308 -0.2054
vn -0.5117 0.8499 -0.1255
vn 0.3657 0.9065 -0.2110
vn 0.7505 0.3127 -0.5822
vn -0.2892 0.9489 0.1263
vn -0.8055 0.3974 0.4396
vn -0.2937 0.8778 -0.3784
vn -0.5195 0.3415 -0.7833
vn 0.2294 0.8851 0.4049
vn 0.5005 0.3201 0.8044
vn 0.7224 -0.3557 -0.5930
vn 0.1897 -0.2481 -0.9500
vn -0.5268 -0.3551 -0.7723
vn -0.9546 -0.2132 -0.2079
vn -0.8333 -0.2550 0.4905
vn -0.1045 -0.1514 0.9829
vn 0.5196 -0.3339 0.7865
vn 0.9585 -0.2789 0.0584
vn -0.0051 -0.9999 0.0103
vn 0.2197 0.9755 0.0096
vn -0.0423 0.9781 -0.2039
vn -0.1653 0.9850 0.0494
vn 0.0504 0.9859 0.1597
vn 0.0681 0.9868 -0.1469
vn 0.0269 0.9892 0.1442
vn 0.0881 0.9961 -0.0052
vn -0.2034 0.9740 -0.0997
vn 0.1015 0.9840 0.1464
vn -0.0556 0.9919 0.1146
vn -0.0833 0.9940 -0.0709
vn 0.0744 0.9814 0.1767
vn 0.6199 0.6545 -0.4329
vn 0.4896 0.3135 -0.8137
vn 0.1125 0.6183 -0.7779
vn 0.1610 0.9388 -0.3045
vn -0.4186 0.6756 -0.6069
vn -0.8017 0.3372 -0.4935
vn -0.7463 0.6343 -0.2017
vn -0.3949 0.8891 -0.2315
vn -0.5633 0.7829 0.2642
vn -0.4773 0.3858 0.7895
vn -0.0056 0.6648 0.7470
vn -0.1173 0.9477 0.2967
vn 0.3812 0.6692 0.6378
vn 0.8063 0.3777 0.4551
vn 0.7979 0.6028 -0.0003
vn 0.3445 0.9221 0.1760
vn 0.8988 0.3379 -0.2794
vn 0.4902 0.8688 -0.0698
vn -0.9301 0.3585 0.0803
vn -0.3864 0.9223 -0.0098
vn -0.1419 0.3266 -0.9344
vn -0.0760 0.8885 -0.4525
vn 0.2609 0.3101 0.9142
vn 0.1543 0.9229 0.3527
vn 0.4553 0.8894 0.0420
vn 0.2170 0.9715 -0.0951
vn 0.1293 0.9595 0.2502
vn 0.7140 0.6935 0.0968
vn 0.4369 0.5338 0.7240
vn 0.1729 0.6660 -0.7256
vn 0.0455 0.9442 -0.3263
vn -0.1994 0.9540 -0.2239
vn 0.6387 0.5182 -0.5688
vn -0.1054 0.9933 0.0480
vn 0.0364 0.9757 0.2162
vn -0.2853 0.9566 -0.0598
vn 0.6705 -0.3735 -0.6411
vn -0.6604 -0.3661 -0.6556
vn -0.6451 -0.2857 0.7087
vn 0.6611 -0.3846 0.6442
vn 0.7712 -0.3978 -0.4970
vn -0.8854 -0.3119 0.3447
vn -0.3578 -0.3749 -0.8553
vn 0.4341 -0.3295 0.8384
vn -0.0733 -0.9945 -0.0744
vn -0.0920 -0.9933 0.0699
vn 0.0685 -0.9923 0.1030
vn 0.0703 -0.9967 -0.0416
vn -0.0970 0.7168 0.6905
vn -0.4878 0.5264 -0.6964
vn -0.7170 0.5715 0.3992
vn -0.7121 0.6899 -0.1303
vn -0.0539 0.9587 -0.2793
vn -0.1738 0.9848 -0.0038
vn 0.0891 0.9798 0.1789
vn -0.2972 0.5222 -0.7993
vn 0.0269 0.9827 0.1832
vn 0.3348 0.5282 0.7803
vn 0.0763 0.9835 -0.1639
vn -0.1575 0.9875 0.0006
vn 0.1931 0.9720 0.1337
vn 0.0140 0.9922 -0.1240
vn -0.2683 0.9527 -0.1429
vn 0.0287 0.9918 0.1244
vn 0.1350 0.9854 0.1034
vn 0.5598 0.5326 0.6348
vn 0.5917 0.5192 -0.6167
vn 0.3591 0.6875 -0.6312
vn -0.6244 0.6826 -0.3798
vn -0.3112 0.7666 0.5616
vn 0.6130 0.7144 0.3374
vn 0.7573 0.6289 -0.1759
vn -0.6870 0.7265 0.0155
vn -0.1205 0.6617 -0.7400
vn 0.2376 0.6885 0.6852
vn 0.3100 0.9506 -0.0160
vn -0.0511 -0.9987 -0.0057
vn -0.0059 -0.9987 0.0501
vn 0.0317 -0.9993 0.0207
vn -0.0099 -0.9995 -0.0286
vn -0.6092 0.5466 0.5745
vn -0.7679 0.5467 0.3339
vn 0.7305 0.5164 -0.4469
vn -0.6400 0.5208 -0.5649
vt 0.044780 0.785920
vt 0.077139 0.783450
vt 0.051516 0.792462
vt 0.210194 0.588463
vt 0.229423 0.612164
vt 0.215828 0.616260
vt 0.231721 0.647692
vt 0.218608 0.648808
vt 0.078628 0.769858
vt 0.109878 0.780430
vt 0.169215 0.804004
vt 0.161170 0.832360
vt 0.159433 0.807474
vt 0.388851 0.767565
vt 0.357282 0.752367
vt 0.385522 0.753913
vt 0.326429 0.763558
vt 0.324317 0.752367
vt 0.178820 0.835405
vt 0.158076 0.867380
vt 0.137840 0.927878
vt 0.105394 0.948705
vt 0.105992 0.933740
vt 0.210194 0.710252
vt 0.191307 0.679537
vt 0.200602 0.675228
vt 0.185927 0.633704
vt 0.196918 0.632352
vt 0.064084 0.932347
vt 0.296893 0.646566
vt 0.418617 0.599058
vt 0.421838 0.644097
vt 0.292146 0.580208
vt 0.293704 0.609474
vt 0.597867 0.156071
vt 0.585096 0.031564
vt 0.658277 0.145732
vt 0.705635 0.000000
vt 0.704553 0.121929
vt 0.088125 0.855497
vt 0.115368 0.903271
vt 0.074192 0.899673
vt 0.126167 0.861612
vt 0.149769 0.903423
vt 0.117829 0.639251
vt 0.012108 0.700484
vt 0.003196 0.646733
vt 0.137707 0.726075
vt 0.129140 0.686270
vt 0.824698 0.345806
vt 0.851212 0.493122
vt 0.757295 0.357746
vt 0.701937 0.520476
vt 0.700970 0.382144
vt 0.023558 0.851278
vt 0.022533 0.814569
vt 0.037908 0.816598
vt 0.543623 0.736982
vt 0.525768 0.772221
vt 0.528780 0.735635
vt 0.537879 0.809968
vt 0.523369 0.806880
vt 0.512127 0.775004
vt 0.513098 0.802541
vt 0.139578 0.791782
vt 0.101086 0.811801
vt 0.134474 0.821007
vt 0.060255 0.948249
vt 0.031061 0.925183
vt 0.196654 0.597721
vt 0.187379 0.569171
vt 0.200057 0.572077
vt 0.210130 0.577473
vt 0.210194 0.597671
vt 0.066215 0.812469
vt 0.051779 0.852891
vt 0.144907 0.779330
vt 0.216401 0.682750
vt 0.229918 0.684549
vt 0.210194 0.713458
vt 0.169304 0.904219
vt 0.289030 0.765233
vt 0.288068 0.756012
vt 0.154236 0.938104
vt 0.147258 0.934212
vt 0.038803 0.894348
vt 0.013959 0.888612
vt 0.013622 0.914032
vt 0.116280 0.571569
vt -0.000000 0.598830
vt 0.000817 0.539625
vt 0.124499 0.599951
vt 0.653726 0.375324
vt 0.579164 0.511735
vt 0.593583 0.380714
vt 0.512127 0.477854
vt 0.605819 0.812582
vt 0.730735 0.786095
vt 0.726052 0.844444
vt 0.606967 0.739562
vt 0.600932 0.777598
vt 0.985837 0.578002
vt 0.853284 0.639430
vt 0.861354 0.520476
vt 0.853284 0.839727
vt 0.836830 0.916743
vt 0.558018 0.738121
vt 0.552575 0.810941
vt 0.555355 0.775633
vt 0.540576 0.774229
vt 0.244029 0.684710
vt 0.245474 0.646973
vt 0.293767 0.685463
vt 0.237902 0.719348
vt 0.223391 0.718603
vt 0.323007 0.811516
vt 0.287893 0.776375
vt 0.326180 0.776375
vt 0.283171 0.810802
vt 0.249487 0.776315
vt 0.174703 0.635215
vt 0.174856 0.569334
vt 0.172834 0.597856
vt 0.184567 0.597248
vt 0.609763 0.699836
vt 0.556566 0.666408
vt 0.614656 0.667226
vt 0.559290 0.697945
vt 0.545700 0.697051
vt 0.544091 0.666267
vt 0.358035 0.820014
vt 0.388812 0.782046
vt 0.386161 0.833022
vt 0.360193 0.779544
vt 0.359899 0.765350
vt 0.238512 0.580160
vt 0.243519 0.610550
vt 0.223942 0.581765
vt 0.193772 0.721417
vt 0.181340 0.682218
vt 0.203171 0.717820
vt 0.000000 0.886378
vt 0.531372 0.668994
vt 0.531401 0.697324
vt 0.007032 0.847928
vt 0.281992 0.433360
vt 0.111166 0.314198
vt 0.266615 0.280250
vt 0.161125 0.539625
vt 0.136191 0.455371
vt 0.076114 0.524191
vt 0.031147 0.464793
vt 0.000000 0.344801
vt 0.503092 0.373801
vt 0.414050 0.258803
vt 0.512127 0.248964
vt 0.469340 0.453329
vt 0.416825 0.402832
vt 0.402487 0.498587
vt 0.427570 0.053744
vt 0.383544 0.112419
vt 0.348338 0.015230
vt 0.477810 0.127712
vt 0.242735 0.115051
vt 0.224779 0.000000
vt 0.101111 0.030347
vt 0.098291 0.149325
vt 0.000000 0.192783
vt 0.027311 0.087396
vt 0.244196 0.832476
vt 0.268478 0.950472
vt 0.210194 0.947245
vt 0.824578 0.287468
vt 1.000000 0.237146
vt 0.992385 0.364301
vt 0.948570 0.446676
vt 0.312423 0.956944
vt 0.353561 0.958499
vt 0.810992 0.142426
vt 0.963766 0.118738
vt 0.815155 0.202192
vt 0.830289 0.243424
vt 0.733211 0.738251
vt 0.731951 0.689850
vt 0.727755 0.620952
vt 0.853284 0.597228
vt 0.985837 0.674547
vt 0.970729 0.624703
vt 0.288993 0.720413
vt 0.419915 0.693052
vt 0.412813 0.752367
vt 0.752466 0.139595
vt 0.830924 0.011986
vt 0.911295 0.047484
vt 0.113466 0.766797
vt 0.178148 0.869149
vt 0.410514 0.539625
vt 0.512127 0.078626
vt 0.024607 0.766797
vt 0.026804 0.939089
vt 0.178820 0.905333
vt 0.251369 0.766451
vt 0.006537 0.919209
vt 0.287921 0.532312
vt 0.413321 0.958383
vt 0.837919 0.520476
vt 0.874296 0.764743
s 1
f 77/1/77 36/2/36 2/3/2
f 77/4/77 68/5/68 99/6/99
f 99/6/99 22/7/22 78/8/78
f 99/9/99 7/10/7 36/2/36
f 82/11/82 37/12/37 4/13/4
f 17/14/17 100/15/100 82/16/82
f 100/15/100 20/17/20 80/18/80
f 100/19/100 6/20/6 37/12/37
f 3/21/3 101/22/101 38/23/38
f 81/24/81 70/25/70 101/26/101
f 101/26/101 24/27/24 73/28/73
f 101/22/101 8/29/8 38/23/38
f 23/30/23 102/31/102 96/32/96
f 12/33/12 102/31/102 67/34/67
f 76/35/76 89/36/89 102/37/102
f 102/37/102 28/38/28 96/39/96
f 9/40/9 103/41/103 46/42/46
f 44/43/44 40/44/40 103/41/103
f 103/41/103 3/21/3 38/23/38
f 46/42/46 38/23/38 8/29/8
f 25/45/25 104/46/104 75/47/75
f 14/48/14 104/46/104 69/49/69
f 95/50/95 90/51/90 104/52/104
f 104/52/104 32/53/32 75/54/75
f 5/55/5 105/56/105 39/57/39
f 18/58/18 105/59/105 72/60/72
f 105/59/105 13/61/13 77/62/77
f 39/63/39 77/62/77 2/64/2
f 42/65/42 45/66/45 7/10/7
f 4/13/4 106/67/106 42/65/42
f 37/12/37 44/43/44 106/67/106
f 45/66/45 44/43/44 9/40/9
f 73/68/73 43/69/43 8/29/8
f 24/27/24 107/70/107 73/28/73
f 107/70/107 11/71/11 71/72/71
f 107/70/107 1/73/1 43/74/43
f 2/3/2 108/75/108 39/57/39
f 36/2/36 45/66/45 108/75/108
f 108/75/108 9/40/9 41/76/41
f 39/57/39 41/76/41 5/55/5
f 7/10/7 109/77/109 42/65/42
f 22/7/22 109/78/109 78/8/78
f 54/79/54 82/80/82 109/78/109
f 109/77/109 4/13/4 42/65/42
f 6/20/6 110/81/110 40/44/40
f 80/18/80 58/82/58 110/83/110
f 110/81/110 15/84/15 81/85/81
f 40/44/40 81/85/81 3/21/3
f 5/55/5 111/86/111 35/87/35
f 41/76/41 46/42/46 111/86/111
f 111/86/111 8/29/8 43/69/43
f 111/86/111 1/88/1 35/87/35
f 10/89/10 112/90/112 74/91/74
f 25/45/25 112/90/112 60/92/60
f 112/93/112 32/53/32 86/94/86
f 74/95/74 86/94/86 33/96/33
f 12/97/12 113/98/113 76/99/76
f 19/100/19 113/98/113 48/101/48
f 113/102/113 26/103/26 83/104/83
f 76/99/76 83/105/83 27/106/27
f 48/101/48 47/107/47 19/100/19
f 48/101/48 49/108/49 114/109/114
f 114/109/114 13/61/13 50/110/50
f 47/107/47 50/110/50 18/58/18
f 23/30/23 115/111/115 51/112/51
f 52/113/52 53/114/53 115/111/115
f 115/111/115 17/115/17 54/79/54
f 51/112/51 54/79/54 22/7/22
f 21/116/21 116/117/116 55/118/55
f 56/119/56 57/120/57 116/117/116
f 57/120/57 58/82/58 116/117/116
f 55/118/55 58/82/58 20/17/20
f 60/92/60 59/121/59 25/45/25
f 60/92/60 61/122/61 117/123/117
f 61/122/61 62/124/62 117/123/117
f 59/121/59 62/124/62 24/27/24
f 63/125/63 61/126/61 10/127/10
f 19/100/19 118/128/118 63/125/63
f 47/107/47 64/129/64 118/128/118
f 118/128/118 11/130/11 61/126/61
f 65/131/65 53/132/53 16/133/16
f 65/131/65 55/118/55 119/134/119
f 119/134/119 20/17/20 66/135/66
f 53/132/53 66/135/66 17/14/17
f 67/34/67 49/136/49 12/33/12
f 67/34/67 51/112/51 120/137/120
f 51/112/51 68/5/68 120/137/120
f 120/137/120 13/138/13 49/136/49
f 69/49/69 57/139/57 14/48/14
f 69/49/69 59/121/59 121/140/121
f 59/121/59 70/25/70 121/140/121
f 121/140/121 15/141/15 57/139/57
f 1/88/1 122/142/122 35/87/35
f 71/143/71 64/129/64 122/144/122
f 122/144/122 18/58/18 72/60/72
f 35/87/35 72/145/72 5/55/5
f 92/146/92 91/147/91 34/148/34
f 92/146/92 87/149/87 123/150/123
f 123/150/123 33/151/33 86/152/86
f 91/147/91 86/152/86 32/153/32
f 89/154/89 93/155/93 28/156/28
f 27/157/27 124/158/124 89/154/89
f 83/159/83 92/146/92 124/158/124
f 124/158/124 34/148/34 93/155/93
f 29/160/29 125/161/125 88/162/88
f 84/163/84 93/155/93 125/161/125
f 125/161/125 34/148/34 94/164/94
f 88/162/88 94/164/94 30/165/30
f 94/164/94 85/166/85 30/165/30
f 34/148/34 126/167/126 94/164/94
f 91/147/91 90/168/90 126/167/126
f 126/167/126 31/169/31 85/166/85
f 14/170/14 127/171/127 95/172/95
f 21/116/21 127/171/127 56/119/56
f 127/173/127 30/174/30 85/175/85
f 95/50/95 85/175/85 31/176/31
f 65/131/65 97/177/97 21/116/21
f 16/133/16 128/178/128 65/131/65
f 98/179/98 88/180/88 128/181/128
f 128/181/128 30/174/30 97/182/97
f 63/125/63 79/183/79 19/100/19
f 10/127/10 129/184/129 63/125/63
f 74/185/74 87/186/87 129/184/129
f 129/187/129 26/103/26 79/188/79
f 16/189/16 130/190/130 98/191/98
f 23/30/23 130/190/130 52/113/52
f 130/192/130 28/38/28 84/193/84
f 98/179/98 84/193/84 29/194/29
f 77/1/77 99/9/99 36/2/36
f 77/4/77 13/138/13 68/5/68
f 99/6/99 68/5/68 22/7/22
f 99/9/99 78/195/78 7/10/7
f 82/11/82 100/19/100 37/12/37
f 17/14/17 66/135/66 100/15/100
f 100/15/100 66/135/66 20/17/20
f 100/19/100 80/196/80 6/20/6
f 3/21/3 81/85/81 101/22/101
f 81/24/81 15/141/15 70/25/70
f 101/26/101 70/25/70 24/27/24
f 101/22/101 73/68/73 8/29/8
f 23/30/23 67/34/67 102/31/102
f 12/33/12 76/197/76 102/31/102
f 76/35/76 27/198/27 89/36/89
f 102/37/102 89/36/89 28/38/28
f 9/40/9 44/43/44 103/41/103
f 44/43/44 6/20/6 40/44/40
f 103/41/103 40/44/40 3/21/3
f 46/42/46 103/41/103 38/23/38
f 25/45/25 69/49/69 104/46/104
f 14/48/14 95/199/95 104/46/104
f 95/50/95 31/176/31 90/51/90
f 104/52/104 90/51/90 32/53/32
f 5/55/5 72/145/72 105/56/105
f 18/58/18 50/110/50 105/59/105
f 105/59/105 50/110/50 13/61/13
f 39/63/39 105/59/105 77/62/77
f 42/65/42 106/67/106 45/66/45
f 4/13/4 37/12/37 106/67/106
f 37/12/37 6/20/6 44/43/44
f 45/66/45 106/67/106 44/43/44
f 73/68/73 107/200/107 43/69/43
f 24/27/24 62/124/62 107/70/107
f 107/70/107 62/124/62 11/71/11
f 107/70/107 71/72/71 1/73/1
f 2/3/2 36/2/36 108/75/108
f 36/2/36 7/10/7 45/66/45
f 108/75/108 45/66/45 9/40/9
f 39/57/39 108/75/108 41/76/41
f 7/10/7 78/195/78 109/77/109
f 22/7/22 54/79/54 109/78/109
f 54/79/54 17/115/17 82/80/82
f 109/77/109 82/11/82 4/13/4
f 6/20/6 80/196/80 110/81/110
f 80/18/80 20/17/20 58/82/58
f 110/81/110 58/201/58 15/84/15
f 40/44/40 110/81/110 81/85/81
f 5/55/5 41/76/41 111/86/111
f 41/76/41 9/40/9 46/42/46
f 111/86/111 46/42/46 8/29/8
f 111/86/111 43/69/43 1/88/1
f 10/89/10 60/92/60 112/90/112
f 25/45/25 75/47/75 112/90/112
f 112/93/112 75/54/75 32/53/32
f 74/95/74 112/93/112 86/94/86
f 12/97/12 48/101/48 113/98/113
f 19/100/19 79/183/79 113/98/113
f 113/102/113 79/188/79 26/103/26
f 76/99/76 113/98/113 83/105/83
f 48/101/48 114/109/114 47/107/47
f 48/101/48 12/97/12 49/108/49
f 114/109/114 49/108/49 13/61/13
f 47/107/47 114/109/114 50/110/50
f 23/30/23 52/113/52 115/111/115
f 52/113/52 16/189/16 53/114/53
f 115/111/115 53/114/53 17/115/17
f 51/112/51 115/111/115 54/79/54
f 21/116/21 56/119/56 116/117/116
f 56/119/56 14/170/14 57/120/57
f 57/120/57 15/202/15 58/82/58
f 55/118/55 116/117/116 58/82/58
f 60/92/60 117/123/117 59/121/59
f 60/92/60 10/89/10 61/122/61
f 61/122/61 11/71/11 62/124/62
f 59/121/59 117/123/117 62/124/62
f 63/125/63 118/128/118 61/126/61
f 19/100/19 47/107/47 118/128/118
f 47/107/47 18/58/18 64/129/64
f 118/128/118 64/129/64 11/130/11
f 65/131/65 119/134/119 53/132/53
f 65/131/65 21/116/21 55/118/55
f 119/134/119 55/118/55 20/17/20
f 53/132/53 119/134/119 66/135/66
f 67/34/67 120/137/120 49/136/49
f 67/34/67 23/30/23 51/112/51
f 51/112/51 22/7/22 68/5/68
f 120/137/120 68/5/68 13/138/13
f 69/49/69 121/140/121 57/139/57
f 69/49/69 25/45/25 59/121/59
f 59/121/59 24/27/24 70/25/70
f 121/140/121 70/25/70 15/141/15
f 1/88/1 71/203/71 122/142/122
f 71/143/71 11/130/11 64/129/64
f 122/144/122 64/129/64 18/58/18
f 35/87/35 122/142/122 72/145/72
f 92/146/92 123/150/123 91/147/91
f 92/146/92 26/204/26 87/149/87
f 123/150/123 87/149/87 33/151/33
f 91/147/91 123/150/123 86/152/86
f 89/154/89 124/158/124 93/155/93
f 27/157/27 83/159/83 124/158/124
f 83/159/83 26/204/26 92/146/92
f 124/158/124 92/146/92 34/148/34
f 29/160/29 84/163/84 125/161/125
f 84/163/84 28/156/28 93/155/93
f 125/161/125 93/155/93 34/148/34
f 88/162/88 125/161/125 94/164/94
f 94/164/94 126/167/126 85/166/85
f 34/148/34 91/147/91 126/167/126
f 91/147/91 32/153/32 90/168/90
f 126/167/126 90/168/90 31/169/31
f 14/170/14 56/119/56 127/171/127
f 21/116/21 97/177/97 127/171/127
f 127/173/127 97/182/97 30/174/30
f 95/50/95 127/173/127 85/175/85
f 65/131/65 128/178/128 97/177/97
f 16/133/16 98/205/98 128/178/128
f 98/179/98 29/194/29 88/180/88
f 128/181/128 88/180/88 30/174/30
f 63/125/63 129/184/129 79/183/79
f 10/127/10 74/185/74 129/184/129
f 74/185/74 33/206/33 87/186/87
f 129/187/129 87/207/87 26/103/26
f 16/189/16 52/113/52 130/190/130
f 23/30/23 96/32/96 130/190/130
f 130/192/130 96/39/96 28/38/28
f 98/179/98 130/192/130 84/193/84
